<?xml version="1.0" encoding="iso-8859-1"?>
<!-- Generator: Adobe Illustrator 19.0.0, SVG Export Plug-In . SVG Version: 6.00 Build 0)  -->
<svg version="1.1" id="Layer_1" xmlns="http://www.w3.org/2000/svg" xmlns:xlink="http://www.w3.org/1999/xlink" x="0px" y="0px"
	 viewBox="0 0 512 512" style="enable-background:new 0 0 512 512;" xml:space="preserve">
<g>
	<g>
		<g>
			<path d="M468.884,439.242V180.547c0-4.466-3.618-8.084-8.084-8.084c-4.466,0-8.084,3.619-8.084,8.084v258.695
				c0,4.466,3.619,8.084,8.084,8.084C465.266,447.326,468.884,443.708,468.884,439.242z"/>
			<path d="M185.937,388.042h-75.453c-16.345,0-29.642,13.298-29.642,29.642v64.674c0,4.848,1.171,9.429,3.242,13.474H45.811
				c-4.465,0-8.084,3.619-8.084,8.084c0,4.466,3.62,8.084,8.084,8.084h140.126c16.345,0,29.642-13.298,29.642-29.642v-64.674
				C215.579,401.34,202.282,388.042,185.937,388.042z M199.411,482.358c0,7.43-6.044,13.474-13.474,13.474h-75.453
				c-7.43,0-13.474-6.044-13.474-13.474v-35.032h83.537c4.465,0,8.084-3.618,8.084-8.084c0-4.466-3.62-8.084-8.084-8.084H97.011
				v-13.474c0-7.43,6.044-13.474,13.474-13.474h75.453c7.43,0,13.474,6.044,13.474,13.474V482.358z"/>
			<path d="M18.863,495.832H8.084C3.62,495.832,0,499.45,0,503.916C0,508.382,3.62,512,8.084,512h10.779
				c4.465,0,8.084-3.618,8.084-8.084C26.947,499.45,23.328,495.832,18.863,495.832z"/>
			<path d="M439.242,97.011h-10.779V29.642C428.463,13.298,415.165,0,398.821,0h-37.726c-16.344,0-29.642,13.298-29.642,29.642
				v67.368h-10.779c-35.683,0-65.858,25.504-71.752,60.642c-0.739,4.404,2.232,8.571,6.636,9.311
				c4.402,0.735,8.57-2.233,9.311-6.636c4.582-27.32,28.052-47.149,55.806-47.149h118.568c31.203,0,56.589,25.387,56.589,56.589
				v312.589c0,7.43-6.044,13.474-13.474,13.474H353.01c-4.466,0-8.084,3.619-8.084,8.084c0,4.466,3.618,8.084,8.084,8.084h129.347
				C498.702,512,512,498.702,512,482.358V169.768C512,129.649,479.361,97.011,439.242,97.011z M412.295,97.011h-64.674V29.642
				c0-7.43,6.044-13.474,13.474-13.474h37.726c7.43,0,13.474,6.044,13.474,13.474V97.011z"/>
			<path d="M285.642,312.589h-2.695v-99.705c0-16.344-13.298-29.642-29.642-29.642h-21.558c-16.345,0-29.642,13.298-29.642,29.642
				v99.705h-2.695c-28.231,0-51.2,22.969-51.2,51.2c0,4.466,3.62,8.084,8.084,8.084s8.084-3.618,8.084-8.084
				c0-19.317,15.716-35.032,35.032-35.032h86.232c19.317,0,35.032,15.715,35.032,35.032v118.568c0,7.43-6.044,13.474-13.474,13.474
				h-72.758c-4.465,0-8.084,3.619-8.084,8.084c0,4.466,3.62,8.084,8.084,8.084H307.2c16.344,0,29.642-13.298,29.642-29.642V363.789
				C336.842,335.558,313.873,312.589,285.642,312.589z M266.779,312.589h-48.505v-99.705c0-7.43,6.044-13.474,13.474-13.474h21.558
				c7.43,0,13.474,6.044,13.474,13.474V312.589z"/>
			<path d="M296.421,460.8v-97.01c0-4.466-3.619-8.084-8.084-8.084c-4.466,0-8.084,3.618-8.084,8.084v97.01
				c0,4.466,3.618,8.084,8.084,8.084C292.803,468.884,296.421,465.266,296.421,460.8z"/>
		</g>
	</g>
</g>
<g>
</g>
<g>
</g>
<g>
</g>
<g>
</g>
<g>
</g>
<g>
</g>
<g>
</g>
<g>
</g>
<g>
</g>
<g>
</g>
<g>
</g>
<g>
</g>
<g>
</g>
<g>
</g>
<g>
</g>
</svg>
