<?xml version="1.0" encoding="iso-8859-1"?>
<!-- Generator: Adobe Illustrator 19.0.0, SVG Export Plug-In . SVG Version: 6.00 Build 0)  -->
<svg version="1.1" id="Layer_1" xmlns="http://www.w3.org/2000/svg" xmlns:xlink="http://www.w3.org/1999/xlink" x="0px" y="0px"
	 viewBox="0 0 218.936 218.936" style="enable-background:new 0 0 218.936 218.936;" xml:space="preserve">
<g>
	<g>
		<g>
			<path d="M122.601,76.6V48.324c-0.024,0.032-0.056,0.06-0.08,0.092c-0.844-6.908-24.252-7.024-25.876-0.352
				c-0.048-0.072-0.116-0.124-0.16-0.196v28.768c-5.372,1.676-10.136,4.344-13.952,7.736v-14.5c0-7.892-6.596-24.664-22.192-30.72
				v-17.2c-0.028,0.024-0.056,0.052-0.084,0.076c0.016-0.124,0.084-0.228,0.084-0.356c0-2.304-2.844-3.744-6.444-4.436
				c-0.128-2.596-0.128-5.416,1.092-6.692c0.504-0.532,1.12-0.756,2.272-0.776c1.092-0.012,3.872-0.26,6.268-0.508
				c2.812-0.296,4.496-2,4.504-4.568c0.008-2.54-1.704-4.296-4.472-4.584c-0.628-0.064-1.26-0.06-1.9-0.048l-9.348,0.028
				C45.089,0.112,37.865,0.14,30.645,0.004c-4.32-0.068-8.176,0.708-11.812,2.412c-1.572,0.736-3.188,1.384-4.808,2.032
				c-1.532,0.616-3.068,1.232-4.564,1.916C6.973,7.5,5.969,9.952,7.021,12.328c1.016,2.296,3.292,3.232,5.952,2.432
				c1.656-0.5,2.94-1,4.044-1.58c6.236-3.272,12.932-4.588,19.968-3.864c0.656,0.032,1.288,0.048,1.892,0.064
				c2.68,0.064,3.8,0.172,4.084,1.044c0.312,0.968,0.416,4.196,0.4,6.772c-3.7,0.676-6.652,2.124-6.652,4.472
				c0,0.344,0.104,0.652,0.22,0.96c-0.068-0.064-0.16-0.112-0.22-0.176v16.296c-17.076,5.84-23.06,24.056-23.06,31.124v140.932
				c0,6.54,26.364,7.048,34.444,7.048c6.28,0,23.556-0.316,30.964-3.524c7.008,3.128,19.016,4.608,30.492,4.608
				c17.62,0,36.588-3.468,36.588-11.076V104.332C146.129,91.688,136.341,80.88,122.601,76.6z M99.321,56.786
				c2.14,1.315,5.839,2.15,10.22,2.15c4.384,0,8.08-0.836,10.224-2.152v19.748l0.012,0.996c-0.032,0.116-0.072,0.22-0.112,0.328
				c-0.608,0.704-4.004,2.132-10.12,2.132c-6.484,0-9.948-1.616-10.224-2.176V56.786z M109.541,45.876
				c6.64,0,10.224,2.064,10.224,2.912c0,0.848-3.584,2.912-10.224,2.912c-6.64,0-10.224-2.068-10.224-2.912
				C99.317,47.944,102.901,45.876,109.541,45.876z M99.317,52.464c2.516,1.356,6.368,2.068,10.224,2.068
				c3.856,0,7.704-0.712,10.224-2.068v2.94c-1.604,1.296-5.36,2.4-10.224,2.4c-4.86,0-8.62-1.104-10.224-2.4V52.464z M57.565,44.996
				c-0.416,0.592-3.596,1.752-9.044,1.752s-8.624-1.16-8.984-1.504v-20.26c2.312,1.084,5.7,1.616,8.984,1.616
				s6.668-0.532,8.984-1.616v19.22L57.565,44.996z M43.041,7.004v0.004c-1.212-0.392-2.668-0.428-4.104-0.464
				c-0.576-0.012-1.176-0.028-1.736-0.056c-7.536-0.764-14.764,0.644-21.504,4.18c-0.936,0.492-2.064,0.928-3.54,1.372
				c-1.908,0.564-2.388-0.512-2.544-0.864c-0.54-1.216,0.26-1.892,1.028-2.24c1.456-0.668,2.948-1.264,4.44-1.864
				c1.668-0.668,3.332-1.336,4.952-2.096c3.276-1.536,6.644-2.236,10.556-2.14c7.244,0.132,14.488,0.104,21.732,0.08l9.392-0.028
				c0.524-0.004,1.044-0.02,1.556,0.032c1.936,0.2,1.932,1.328,1.928,1.752c0,0.724-0.228,1.58-2.108,1.776
				c-1.16,0.124-4.72,0.484-5.804,0.476c-0.268,0-0.476,0.096-0.728,0.12c-0.068-0.012-0.132-0.04-0.2-0.04H43.041z M51.121,18.62
				c0.024,0.432,0.048,0.856,0.068,1.256c-0.424,0.168-1.296,0.372-2.552,0.372c-1.228,0-2.088-0.196-2.524-0.36
				c0.132-2.18,0.16-7.856-0.396-10.048h6.34C50.769,12.284,50.953,15.744,51.121,18.62z M43.257,20.104
				c-0.008,0.08-0.012,0.196-0.02,0.26c0,2.004,2.792,2.72,5.404,2.72c1.96,0,4.02-0.404,4.928-1.452l0.116-0.148
				c0.164-0.224,0.272-0.476,0.328-0.756l0.196-0.52c1.932,0.472,3.072,1.092,3.284,1.46c-0.372,0.64-3.376,2.096-8.968,2.096
				c-5.748,0-8.76-1.536-8.992-2.048C39.673,21.336,40.945,20.608,43.257,20.104z M36.701,43.024v2.22
				c0,4.216,10.608,4.34,11.82,4.34c1.212,0,11.82-0.124,11.82-4.34v-1.76c12.648,5.848,18.224,19.924,18.224,26.388v18.704
				c-3.548,4.568-5.608,9.968-5.608,15.76v95.656c-5.396,0.972-13.776,1.76-24.432,1.76c-17.796,0-29.348-2.188-30.908-3.536V69.872
				h-0.004C17.613,63.016,23.285,48.52,36.701,43.024z M48.089,213.884c-18.424,0-28.604-2.216-30.476-3.532v-9.26
				c7.724,3.368,28.108,3.492,30.908,3.492c2.2,0,15.192-0.088,24.432-1.748v5.028c0,1.404,0.652,2.664,1.816,3.788
				C70.057,212.764,61.197,213.884,48.089,213.884z M142.161,207.86c0,2.412-11.512,7.108-32.62,7.108
				c-21.108,0-32.616-4.696-32.616-7.108v-7.004c6.96,3.464,23.044,4.5,32.616,4.5c9.572,0,25.66-1.036,32.62-4.5V207.86z
				 M142.161,197.772c-2.576,1.944-13.972,4.748-32.62,4.748c-18.644,0-30.04-2.804-32.616-4.748v-93.44
				c0-10.964,8.752-20.312,21.02-24.012c2.572,1.912,8,2.5,11.596,2.5s9.028-0.588,11.6-2.504
				c12.268,3.7,21.016,13.052,21.016,24.012v93.444H142.161z"/>
			<path d="M109.541,101.756c-8.328,0-15.104,7.168-15.104,15.976c0,8.808,6.776,15.976,15.104,15.976s15.104-7.168,15.104-15.976
				C124.645,108.924,117.869,101.756,109.541,101.756z M109.541,131.44c-7.08,0-12.832-6.148-12.832-13.708
				c0-7.556,5.756-13.704,12.832-13.704c7.08,0,12.832,6.148,12.832,13.704C122.373,125.292,116.617,131.44,109.541,131.44z"/>
			<path d="M19.377,31.188c0-2.776-4.048-8.276-4.86-9.352l-1.132-1.5l-1.132,1.5c-0.812,1.076-4.86,6.576-4.86,9.352
				c0,3.216,2.688,5.836,5.992,5.836C16.689,37.024,19.377,34.404,19.377,31.188z M13.385,34.188c-1.74,0-3.156-1.344-3.156-3
				c0-0.992,1.488-3.644,3.156-6.072c1.668,2.428,3.156,5.084,3.156,6.072C16.541,32.844,15.125,34.188,13.385,34.188z"/>
			<path d="M212.321,66.884c-0.048-4.576-3.776-8.284-8.364-8.284h-48.344c-4.712,0-8.548,3.664-8.908,8.284l-0.072,2.444v1.524
				h0.136l11.044,125.612h4.308v3.12h-6.052v8.584c0,5.276,4.292,9.568,9.568,9.568h27.684c5.276,0,9.568-4.292,9.568-9.568v-8.584
				h-6.048v-3.12h4.308l11.044-125.612h0.136v-1.548L212.321,66.884z M203.957,62.568c0.056,0,0.1,0.028,0.152,0.032l-1.468,4.284
				h-5.164l1.8-4.316H203.957z M198.049,62.568l-1.8,4.316h-4.644l1.468-4.316H198.049z M191.873,62.568l-1.468,4.316h-4.652
				l1.48-4.316H191.873z M186.029,62.568l-1.48,4.316h-5.168l1.8-4.316H186.029z M179.957,62.568l-1.8,4.316h-5.236l1.888-4.316
				H179.957z M173.573,62.568l-1.888,4.316h-4.024l1.476-4.316H173.573z M167.941,62.568l-1.476,4.316h-5.168l1.8-4.316H167.941z
				 M156.753,62.568h5.116l-1.8,4.316h-5.124L156.753,62.568z M155.513,62.584l-1.804,4.3h-3.064
				C150.985,64.48,153.033,62.636,155.513,62.584z M198.921,203.552v4.616c0,3.084-2.512,5.596-5.596,5.596h-27.688
				c-3.088,0-5.6-2.512-5.6-5.596v-4.616H198.921z M164.389,199.584v-3.12h30.18v3.12H164.389z M197.513,192.496h-36.064
				l-10.7-121.644h57.46L197.513,192.496z M203.841,66.884l1.392-4.06c1.772,0.548,3.088,2.124,3.124,4.06H203.841z"/>
			<path d="M179.481,181.848c6.84,0,12.408-5.888,12.408-13.12s-5.568-13.12-12.408-13.12c-6.84,0-12.408,5.884-12.408,13.12
				C167.073,175.964,172.637,181.848,179.481,181.848z M179.481,157.88c5.588,0,10.136,4.868,10.136,10.848
				c0,5.984-4.548,10.852-10.136,10.852c-5.592,0-10.14-4.868-10.14-10.852C169.341,162.744,173.889,157.88,179.481,157.88z"/>
			<path d="M48.521,98.024c8.328,0,15.104-6.944,15.104-15.472c0-8.532-6.776-15.472-15.104-15.472s-15.104,6.94-15.104,15.472
				C33.417,91.08,40.193,98.024,48.521,98.024z M48.521,69.348c7.076,0,12.832,5.92,12.832,13.204c0,7.28-5.756,13.2-12.832,13.2
				s-12.832-5.92-12.832-13.2C35.689,75.272,41.445,69.348,48.521,69.348z"/>
		</g>
	</g>
</g>
<g>
</g>
<g>
</g>
<g>
</g>
<g>
</g>
<g>
</g>
<g>
</g>
<g>
</g>
<g>
</g>
<g>
</g>
<g>
</g>
<g>
</g>
<g>
</g>
<g>
</g>
<g>
</g>
<g>
</g>
</svg>
