<?xml version="1.0" encoding="iso-8859-1"?>
<!-- Generator: Adobe Illustrator 19.0.0, SVG Export Plug-In . SVG Version: 6.00 Build 0)  -->
<svg version="1.1" id="Layer_1" xmlns="http://www.w3.org/2000/svg" xmlns:xlink="http://www.w3.org/1999/xlink" x="0px" y="0px"
	 viewBox="0 0 512.001 512.001" style="enable-background:new 0 0 512.001 512.001;" xml:space="preserve">
<g>
	<g>
		<path d="M490.024,261.587c-1.657-21.016-5.262-41.151-10.714-59.848c-1.269-4.355-2.663-8.749-4.26-13.434
			c-0.013-0.039-0.045-0.127-0.067-0.19c-5.599-16.422-12.216-32.073-19.657-49.364c-0.018-0.041-0.041-0.08-0.059-0.121
			l-1.18-2.741c-17.992-41.781-34.986-81.244-32.383-125.478c0.319-5.422-3.818-10.076-9.24-10.394
			c-5.419-0.323-10.076,3.818-10.396,9.24c-2.733,46.447,14.034,88.017,31.243,128.111c-0.437,0.172-0.872,0.353-1.34,0.534
			c-23.216,8.956-50.447,15.899-80.254,20.604c-29.807,4.705-62.192,7.171-95.713,7.171c-27.176,0-53.793-1.623-79.111-4.823
			c-4.045-0.514-7.822,1.507-9.744,4.823c-0.641,1.105-1.077,2.354-1.247,3.702c-0.682,5.389,3.135,10.309,8.523,10.99
			c26.128,3.303,53.575,4.978,81.577,4.978c69.405,0,134.412-10.331,183.046-29.093c0.679-0.261,1.357-0.527,2.036-0.795
			c4.453,10.461,8.552,20.412,12.229,30.4c-0.823,0.326-1.639,0.66-2.466,0.979c-52.305,20.176-121.502,31.289-194.845,31.289
			s-142.54-11.113-194.845-31.289c-0.826-0.319-1.643-0.654-2.466-0.979c3.675-9.983,7.776-19.936,12.229-30.399
			c20.517,8.102,41.802,13.67,63.331,18.313c0.033,0.007,0.066,0.014,0.098,0.021c5.32,1.091,10.518-2.342,11.606-7.663
			c1.09-5.321-2.342-10.518-7.663-11.606c-10.802-2.211-21.545-4.789-32.132-7.875c-8.928-2.603-19.203-4.85-27.379-9.322
			c2.207-7.3,6.086-14.425,8.951-21.52c2.931-7.257,5.734-14.565,8.308-21.957c5.166-14.834,9.407-30.028,11.856-45.56
			c2.034-12.896,2.807-25.993,2.042-39.032c-0.319-5.422-4.97-9.564-10.394-9.24c-5.422,0.319-9.559,4.972-9.24,10.394
			c2.602,44.234-14.392,83.698-32.384,125.478l-1.185,2.754c-0.017,0.037-0.037,0.071-0.054,0.109
			c-7.453,17.315-14.078,32.987-19.683,49.432c-0.017,0.047-0.034,0.094-0.05,0.142c-1.597,4.685-2.988,9.073-4.252,13.412
			c-5.452,18.697-9.057,38.834-10.714,59.85c-0.99,12.547-1.488,25.693-1.483,39.13l0.004,0.597
			c0.119,74.053,15.406,148.79,41.942,205.044c1.678,3.556,5.214,5.641,8.901,5.641c1.406,0,2.834-0.303,4.189-0.943
			c4.912-2.317,7.017-8.178,4.698-13.09c-24.358-51.639-38.787-119.862-39.976-188.396c96.527-8.003,184.443,33.163,205.912,44.145
			v148.447c0,5.431,4.403,9.834,9.834,9.834s9.834-4.403,9.834-9.834V353.706c11.333-5.819,41.146-20.074,80.705-30.964
			c5.237-1.441,8.313-6.855,6.872-12.091c-1.441-5.237-6.859-8.317-12.091-6.872c-42.528,11.706-73.76,26.834-85.321,32.854
			c-9.647-5.02-33.011-16.388-65.253-26.844c-36.576-11.859-91.5-24.524-150.471-19.963c0.191-9.115,0.631-18.056,1.311-26.692
			c1.551-19.677,4.912-38.481,9.989-55.891c0.262-0.901,0.531-1.804,0.806-2.713c0.565,0.222,1.129,0.441,1.694,0.66
			c54.508,21.027,126.219,32.607,201.923,32.607c30.754,0,60.85-1.912,89.401-5.591c41.728-5.377,80.157-14.531,112.523-27.017
			c0.565-0.219,1.13-0.438,1.694-0.66c0.275,0.909,0.544,1.813,0.806,2.714c5.077,17.408,8.438,36.213,9.989,55.89
			c0.682,8.636,1.12,17.576,1.311,26.691c-27.66-2.15-56.735-0.726-86.598,4.254c-5.358,0.893-8.977,5.961-8.084,11.317
			c0.894,5.358,5.961,8.973,11.318,8.084c28.853-4.811,56.852-6.113,83.384-3.908c-1.184,68.505-15.616,136.752-39.978,188.396
			c-2.317,4.912-0.214,10.773,4.698,13.09c1.356,0.64,2.784,0.943,4.189,0.943c3.687,0,7.224-2.085,8.901-5.641
			c26.518-56.215,41.805-130.903,41.942-204.872c0,0,0.004-0.774,0.004-0.827C491.514,287.28,491.014,274.135,490.024,261.587z"/>
	</g>
</g>
<g>
	<g>
		<path d="M256.003,109.018c-5.431,0-9.834,4.403-9.834,9.834v16.985c0,5.431,4.403,9.834,9.834,9.834s9.834-4.403,9.834-9.834
			v-16.985C265.837,113.422,261.434,109.018,256.003,109.018z"/>
	</g>
</g>
<g>
</g>
<g>
</g>
<g>
</g>
<g>
</g>
<g>
</g>
<g>
</g>
<g>
</g>
<g>
</g>
<g>
</g>
<g>
</g>
<g>
</g>
<g>
</g>
<g>
</g>
<g>
</g>
<g>
</g>
</svg>
