<?xml version="1.0" encoding="iso-8859-1"?>
<!-- Generator: Adobe Illustrator 18.0.0, SVG Export Plug-In . SVG Version: 6.00 Build 0)  -->
<!DOCTYPE svg PUBLIC "-//W3C//DTD SVG 1.1//EN" "http://www.w3.org/Graphics/SVG/1.1/DTD/svg11.dtd">
<svg version="1.1" id="Capa_1" xmlns="http://www.w3.org/2000/svg" xmlns:xlink="http://www.w3.org/1999/xlink" x="0px" y="0px"
	 viewBox="0 0 298.859 298.859" style="enable-background:new 0 0 298.859 298.859;" xml:space="preserve">
<g>
	<path d="M198.971,0.269c-0.002,0-0.005-0.002-0.008-0.002c-0.012-0.004-0.023-0.008-0.035-0.012
		c-0.057-0.018-0.113-0.029-0.17-0.045c-0.004,0-0.008-0.002-0.012-0.002c-0.078-0.022-0.156-0.047-0.236-0.065
		c-0.029-0.008-0.059-0.014-0.088-0.021c-0.072-0.016-0.145-0.025-0.217-0.037c-0.078-0.014-0.154-0.029-0.23-0.039
		c-0.027-0.004-0.055-0.006-0.082-0.01c-0.08-0.01-0.16-0.014-0.238-0.019c-0.072-0.004-0.143-0.012-0.213-0.014
		c-0.027-0.002-0.057-0.002-0.084-0.002c-0.086,0-0.169,0.002-0.253,0.006c-0.063,0.002-0.128,0-0.192,0.004
		c-0.031,0.002-0.063,0.006-0.094,0.008c-0.086,0.008-0.17,0.02-0.254,0.031c-0.059,0.008-0.12,0.012-0.18,0.022
		c-0.033,0.006-0.066,0.012-0.1,0.019c-0.084,0.014-0.164,0.035-0.246,0.053c-0.06,0.014-0.119,0.025-0.178,0.041
		c-0.033,0.01-0.066,0.017-0.1,0.027c-0.078,0.023-0.154,0.051-0.232,0.076c-0.061,0.022-0.125,0.039-0.186,0.063
		c-0.031,0.012-0.06,0.022-0.092,0.035c-0.071,0.027-0.141,0.061-0.211,0.092c-0.068,0.031-0.137,0.061-0.203,0.094
		c-0.021,0.01-0.045,0.018-0.066,0.029c-0.006,0.002-0.01,0.006-0.014,0.008c-0.063,0.033-0.123,0.07-0.185,0.106
		c-0.069,0.039-0.14,0.078-0.208,0.121c-0.012,0.006-0.025,0.014-0.037,0.021c-0.016,0.01-0.031,0.018-0.047,0.027
		c-0.053,0.033-0.1,0.072-0.151,0.107c-0.067,0.047-0.136,0.094-0.2,0.145c-0.029,0.021-0.059,0.041-0.086,0.063
		c-0.049,0.037-0.092,0.08-0.138,0.119c-0.061,0.053-0.124,0.105-0.183,0.162c-0.027,0.023-0.057,0.047-0.084,0.074
		c-0.043,0.041-0.082,0.088-0.125,0.131c-0.055,0.059-0.111,0.115-0.164,0.176c-0.025,0.029-0.053,0.057-0.078,0.086
		c-0.039,0.045-0.072,0.094-0.109,0.141c-0.05,0.063-0.1,0.127-0.147,0.193c-0.023,0.031-0.048,0.063-0.071,0.096
		c-0.033,0.047-0.061,0.1-0.094,0.148c-0.044,0.068-0.088,0.139-0.131,0.211c-0.02,0.033-0.041,0.065-0.059,0.098
		c-0.031,0.055-0.055,0.111-0.083,0.168c-0.038,0.072-0.075,0.146-0.11,0.223c-0.014,0.029-0.029,0.057-0.042,0.086
		c-0.017,0.041-0.03,0.082-0.046,0.123c-0.011,0.025-0.02,0.053-0.029,0.078c-0.021,0.053-0.045,0.102-0.064,0.154l-21.439,60.607
		l-4.533-31.318c1.025-0.299,1.956-0.885,2.661-1.717c1.046-1.232,1.495-2.861,1.231-4.455l-3.668-22.18
		C165.9,1.947,163.604,0,160.913,0h-22.961c-2.691,0-4.988,1.947-5.428,4.603l-3.668,22.18c-0.264,1.594,0.188,3.223,1.232,4.455
		c0.705,0.832,1.637,1.418,2.662,1.717l-4.623,31.98L107.321,3.73c-0.021-0.059-0.047-0.111-0.068-0.168
		c-0.007-0.022-0.014-0.041-0.021-0.06c-0.025-0.061-0.044-0.123-0.07-0.184c-0.008-0.02-0.02-0.039-0.028-0.061
		c-0.034-0.076-0.073-0.148-0.11-0.223c-0.002-0.004-0.004-0.01-0.006-0.014c-0.042-0.084-0.082-0.166-0.129-0.246
		c-0.041-0.074-0.087-0.143-0.132-0.215c-0.002-0.002-0.004-0.006-0.006-0.008c-0.036-0.057-0.067-0.117-0.105-0.172
		c-0.015-0.021-0.032-0.041-0.048-0.063c-0.049-0.07-0.104-0.137-0.156-0.205c-0.041-0.053-0.08-0.109-0.124-0.162
		c-0.017-0.018-0.034-0.035-0.05-0.055c-0.057-0.063-0.115-0.123-0.174-0.186c-0.064-0.066-0.127-0.135-0.195-0.199
		c-0.063-0.059-0.129-0.115-0.193-0.172c-0.07-0.061-0.141-0.121-0.214-0.178c-0.072-0.057-0.147-0.107-0.222-0.16
		c-0.001,0-0.002,0-0.002,0c-0.051-0.035-0.098-0.074-0.15-0.109c-0.021-0.014-0.043-0.025-0.064-0.039
		c-0.076-0.047-0.153-0.09-0.23-0.133c-0.061-0.035-0.118-0.07-0.18-0.104c-0.01-0.004-0.02-0.01-0.029-0.016
		c-0.012-0.006-0.023-0.01-0.034-0.016c-0.073-0.037-0.149-0.068-0.226-0.102c-0.068-0.031-0.135-0.065-0.205-0.092
		c-0.024-0.01-0.047-0.019-0.072-0.029c-0.068-0.027-0.141-0.047-0.211-0.07c-0.075-0.025-0.148-0.053-0.225-0.074
		c-0.027-0.008-0.053-0.018-0.08-0.025c-0.061-0.016-0.121-0.025-0.182-0.041c-0.008,0-0.015-0.002-0.021-0.004
		c-0.08-0.02-0.16-0.039-0.24-0.055c-0.096-0.018-0.189-0.029-0.283-0.041c-0.084-0.012-0.168-0.023-0.252-0.031
		c-0.008,0-0.014-0.002-0.021-0.002c-0.084-0.006-0.168-0.008-0.252-0.01c-0.002,0-0.004-0.002-0.006-0.002
		c-0.086-0.002-0.172-0.006-0.258-0.006c-0.002,0-0.003,0-0.004,0c-0.09,0.002-0.178,0.008-0.266,0.014
		c-0.006,0.002-0.011,0.002-0.016,0.002c-0.086,0.006-0.17,0.01-0.256,0.019c-0.02,0.002-0.039,0.002-0.059,0.004
		c-0.076,0.01-0.154,0.027-0.23,0.039c-0.08,0.014-0.162,0.025-0.242,0.043c-0.021,0.004-0.041,0.008-0.063,0.012
		c-0.074,0.016-0.146,0.041-0.219,0.06c-0.012,0.002-0.021,0.006-0.031,0.008c-0.063,0.018-0.123,0.027-0.186,0.047
		c-0.018,0.006-0.037,0.012-0.055,0.018c-0.002,0.002-0.002,0.002-0.004,0.002c-23.736,7.42-44.011,19.98-58.633,36.324
		c-15.226,17.02-23.274,37.029-23.274,57.867v151.666c0,3.039,2.462,5.5,5.5,5.5h33.47l-4.304,41.158
		c-0.162,1.551,0.341,3.096,1.384,4.254c1.043,1.158,2.527,1.818,4.086,1.818h71.217c0.011,0,0.021,0.002,0.031,0.002
		c0.174,0,0.346-0.012,0.518-0.027c0.041-0.004,0.08-0.01,0.121-0.014c0.127-0.016,0.252-0.035,0.375-0.059
		c0.05-0.008,0.1-0.018,0.148-0.027c0.15-0.033,0.299-0.07,0.443-0.113c0.055-0.018,0.107-0.037,0.161-0.057
		c0.099-0.033,0.196-0.068,0.294-0.107c0.064-0.025,0.129-0.055,0.193-0.084c0.086-0.037,0.17-0.078,0.254-0.121
		c0.057-0.029,0.115-0.059,0.17-0.09c0.135-0.074,0.268-0.154,0.396-0.24c0.008-0.006,0.016-0.012,0.025-0.017
		c0.127-0.088,0.248-0.18,0.367-0.275c0.029-0.024,0.059-0.049,0.088-0.074c0.1-0.086,0.197-0.174,0.291-0.266
		c0.025-0.023,0.051-0.049,0.074-0.072c0.109-0.109,0.213-0.225,0.311-0.342c0.006-0.008,0.014-0.014,0.02-0.022
		c0.107-0.131,0.207-0.266,0.302-0.404c0.018-0.025,0.033-0.053,0.05-0.08c0.07-0.105,0.135-0.213,0.197-0.322
		c0.031-0.057,0.061-0.113,0.09-0.17c0.043-0.084,0.084-0.168,0.123-0.254c0.029-0.068,0.061-0.137,0.09-0.207
		c0.008-0.021,0.018-0.041,0.026-0.063l14.682-37.736l14.714,37.74c0.008,0.02,0.018,0.039,0.026,0.059
		c0.028,0.07,0.06,0.139,0.091,0.209c0.039,0.084,0.078,0.17,0.121,0.254c0.029,0.057,0.06,0.113,0.09,0.168
		c0.063,0.111,0.129,0.219,0.197,0.324c0.018,0.025,0.033,0.053,0.05,0.078c0.095,0.141,0.196,0.275,0.304,0.406
		c0.004,0.004,0.006,0.008,0.01,0.012c0.102,0.121,0.209,0.238,0.32,0.352c0.022,0.023,0.045,0.045,0.068,0.068
		c0.096,0.094,0.197,0.184,0.299,0.272c0.027,0.023,0.055,0.047,0.082,0.068c0.121,0.1,0.247,0.193,0.377,0.283
		c0.006,0.004,0.012,0.008,0.018,0.012c0.129,0.086,0.263,0.166,0.398,0.242c0.055,0.029,0.108,0.057,0.162,0.084
		c0.088,0.045,0.175,0.088,0.264,0.127c0.063,0.029,0.125,0.057,0.188,0.082c0.099,0.039,0.199,0.076,0.3,0.109
		c0.051,0.017,0.1,0.037,0.15,0.053c0.146,0.045,0.297,0.082,0.449,0.115c0.049,0.01,0.098,0.02,0.146,0.027
		c0.125,0.023,0.251,0.043,0.379,0.059c0.039,0.004,0.078,0.01,0.119,0.014c0.171,0.016,0.344,0.027,0.518,0.027
		c0.01,0,0.02-0.002,0.031-0.002h71.695c1.559,0,3.044-0.66,4.087-1.818s1.546-2.703,1.384-4.254l-4.303-41.158h32.416
		c3.037,0,5.5-2.461,5.5-5.5V94.461c0-20.775-7.984-40.752-23.09-57.768C242.729,20.324,222.575,7.731,198.971,0.269z
		 M190.769,53.346c-0.054,0.053-0.099,0.111-0.149,0.166c-0.076,0.082-0.156,0.164-0.229,0.252c-0.02,0.023-0.035,0.051-0.055,0.074
		c-1.471,1.867-1.564,4.467-0.271,6.424c0.039,0.061,0.086,0.115,0.129,0.174c0.064,0.092,0.127,0.184,0.198,0.271
		c0.056,0.066,0.118,0.131,0.179,0.197c0.065,0.072,0.128,0.148,0.199,0.219l15.981,15.982l-57.056,83.521l-0.965-1.412
		l24.822-70.174c0.005-0.012,0.009-0.023,0.014-0.035l24.623-69.607l8.961,17.562L190.769,53.346z M108.62,61.125c0,0,0,0,0.002,0
		c0.32-0.32,0.588-0.672,0.813-1.043c0.434-0.717,0.693-1.508,0.771-2.314c0-0.002,0.001-0.004,0.002-0.006
		c0.018-0.197,0.026-0.395,0.024-0.592c-0.016-1.387-0.553-2.766-1.609-3.824L92.237,36.959l8.859-17.363l41.83,123.043
		l-1.883,5.322L92.635,77.105L108.62,61.125z M142.616,11h13.632l1.849,11.18h-17.329L142.616,11z M143.833,33.18h11.199
		l7.729,53.391l-13.91,39.32l-12.925-38.018L143.833,33.18z M69.053,246.697c0-0.004,0-0.01,0-0.014l6.061-57.949
		c0.041-0.404,0.039-0.811-0.008-1.213l-11-93.701c-0.354-3.018-3.09-5.176-6.104-4.822c-3.017,0.355-5.176,3.088-4.822,6.104
		l10.93,93.096l-5.483,52.43h-29.12V94.461c0-33.135,23.665-63.088,61.346-78.992L80.661,35.447l-0.023,0.045l-0.016,0.029
		c-0.014,0.029-0.024,0.059-0.039,0.086c-0.064,0.133-0.125,0.266-0.178,0.4c-0.023,0.061-0.043,0.121-0.064,0.184
		c-0.037,0.106-0.075,0.211-0.105,0.318c-0.025,0.088-0.045,0.178-0.066,0.266c-0.018,0.082-0.039,0.164-0.055,0.246
		c-0.019,0.104-0.031,0.209-0.045,0.314c-0.008,0.068-0.02,0.139-0.025,0.207c-0.01,0.107-0.012,0.217-0.016,0.326
		c-0.002,0.068-0.005,0.137-0.004,0.205c0,0.104,0.008,0.205,0.014,0.307c0.006,0.076,0.01,0.154,0.018,0.23
		c0.01,0.09,0.025,0.18,0.039,0.268c0.014,0.09,0.027,0.178,0.045,0.266c0.016,0.076,0.037,0.152,0.056,0.227
		c0.024,0.1,0.05,0.197,0.08,0.295c0.021,0.066,0.046,0.131,0.069,0.195c0.035,0.104,0.072,0.205,0.114,0.305
		c0.026,0.064,0.058,0.127,0.089,0.189c0.045,0.096,0.089,0.191,0.139,0.285c0.041,0.074,0.084,0.145,0.128,0.215
		c0.048,0.08,0.093,0.158,0.145,0.234c0.061,0.092,0.13,0.18,0.196,0.267c0.041,0.053,0.078,0.108,0.121,0.158
		c0.09,0.111,0.188,0.217,0.289,0.32c0.023,0.025,0.043,0.051,0.066,0.074l0.025,0.025l0.033,0.033l15.264,15.266L81.632,72.553
		c-0.008,0.008-0.015,0.018-0.022,0.025c-0.093,0.094-0.178,0.191-0.264,0.291c-0.035,0.041-0.072,0.08-0.105,0.121
		c-0.078,0.096-0.146,0.195-0.217,0.293c-0.035,0.053-0.075,0.102-0.109,0.154c-0.055,0.084-0.102,0.17-0.152,0.256
		c-0.041,0.072-0.086,0.143-0.123,0.217c-0.035,0.066-0.063,0.135-0.094,0.201c-0.045,0.096-0.092,0.191-0.131,0.289
		c-0.021,0.051-0.035,0.102-0.055,0.154c-0.041,0.115-0.084,0.23-0.119,0.348c-0.014,0.051-0.023,0.102-0.037,0.152
		c-0.031,0.119-0.063,0.238-0.085,0.359c-0.015,0.072-0.021,0.145-0.032,0.219c-0.014,0.1-0.031,0.197-0.041,0.297
		c-0.01,0.109-0.012,0.219-0.016,0.326c-0.002,0.066-0.008,0.131-0.008,0.197c0,0.131,0.009,0.26,0.018,0.391
		c0.004,0.045,0.004,0.09,0.008,0.133c0.012,0.129,0.033,0.256,0.055,0.383c0.008,0.047,0.013,0.096,0.021,0.143
		c0.021,0.109,0.052,0.217,0.08,0.324c0.018,0.066,0.03,0.133,0.051,0.199c0.024,0.084,0.057,0.166,0.086,0.248
		c0.031,0.09,0.061,0.18,0.098,0.268c0.025,0.063,0.057,0.123,0.084,0.184c0.049,0.105,0.096,0.213,0.152,0.316
		c0.027,0.051,0.061,0.1,0.089,0.15c0.063,0.109,0.126,0.217,0.198,0.324c0.006,0.01,0.012,0.02,0.018,0.029l63.217,92.531v69.352
		l-18.064,46.43H64.748L69.053,246.697z M269.352,240.627h-28.067l-5.482-52.43l10.928-93.096c0.354-3.016-1.805-5.748-4.821-6.104
		c-3.015-0.354-5.749,1.805-6.104,4.822l-10.999,93.701c-0.047,0.402-0.051,0.809-0.008,1.213l6.059,57.945
		c0,0.008,0.002,0.014,0.002,0.021l4.304,41.156h-61.866l-18.102-46.432v-69.35l63.211-92.531c0.008-0.01,0.012-0.02,0.018-0.027
		c0.074-0.111,0.141-0.225,0.205-0.336c0.027-0.047,0.057-0.092,0.082-0.139c0.059-0.109,0.109-0.221,0.16-0.332
		c0.025-0.057,0.054-0.111,0.077-0.168c0.039-0.094,0.069-0.189,0.103-0.285c0.027-0.076,0.059-0.152,0.082-0.23
		c0.021-0.072,0.037-0.146,0.055-0.221c0.026-0.1,0.055-0.199,0.074-0.301c0.012-0.057,0.017-0.113,0.025-0.17
		c0.02-0.119,0.041-0.238,0.053-0.357c0.004-0.055,0.004-0.109,0.008-0.164c0.008-0.119,0.018-0.24,0.018-0.359
		c0-0.078-0.008-0.156-0.01-0.234c-0.004-0.096-0.006-0.191-0.014-0.287c-0.012-0.113-0.029-0.225-0.047-0.338
		c-0.01-0.061-0.016-0.121-0.027-0.18c-0.024-0.133-0.059-0.262-0.092-0.393c-0.012-0.039-0.019-0.08-0.029-0.119
		c-0.037-0.127-0.082-0.25-0.129-0.373c-0.016-0.043-0.027-0.086-0.045-0.129c-0.041-0.105-0.092-0.207-0.139-0.309
		c-0.029-0.061-0.055-0.123-0.085-0.182c-0.04-0.078-0.088-0.154-0.132-0.23c-0.048-0.08-0.092-0.164-0.145-0.242
		c-0.035-0.057-0.078-0.109-0.115-0.162c-0.068-0.098-0.135-0.193-0.21-0.285c-0.036-0.045-0.075-0.086-0.112-0.129
		c-0.083-0.096-0.166-0.193-0.258-0.285c-0.008-0.008-0.015-0.018-0.023-0.025l-15.318-15.318L217.7,41.967l0.031-0.029l0.027-0.027
		c0.025-0.025,0.047-0.053,0.07-0.08c0.1-0.102,0.195-0.205,0.285-0.315c0.043-0.051,0.081-0.107,0.121-0.16
		c0.068-0.088,0.135-0.174,0.195-0.266c0.052-0.076,0.098-0.156,0.146-0.236c0.043-0.07,0.086-0.141,0.125-0.213
		c0.051-0.094,0.096-0.189,0.141-0.285c0.029-0.063,0.061-0.127,0.088-0.189c0.043-0.1,0.079-0.203,0.115-0.305
		c0.023-0.064,0.049-0.131,0.068-0.195c0.031-0.098,0.055-0.197,0.08-0.295c0.02-0.076,0.039-0.15,0.056-0.227
		c0.019-0.088,0.031-0.176,0.046-0.264c0.014-0.09,0.029-0.18,0.039-0.27c0.008-0.076,0.012-0.152,0.016-0.229
		c0.008-0.104,0.014-0.205,0.016-0.309c0-0.068-0.004-0.137-0.006-0.205c-0.002-0.109-0.006-0.219-0.016-0.326
		c-0.006-0.07-0.016-0.139-0.023-0.207c-0.014-0.105-0.027-0.211-0.047-0.316c-0.015-0.08-0.035-0.162-0.055-0.242
		c-0.019-0.09-0.039-0.18-0.064-0.27c-0.031-0.105-0.068-0.211-0.105-0.316c-0.021-0.06-0.041-0.123-0.064-0.185
		c-0.053-0.133-0.113-0.264-0.178-0.395c-0.015-0.031-0.025-0.061-0.041-0.09l-0.016-0.031l-0.021-0.043l-10.158-19.906
		c37.338,15.965,60.781,45.881,60.781,78.92V240.627z"/>
</g>
<g>
</g>
<g>
</g>
<g>
</g>
<g>
</g>
<g>
</g>
<g>
</g>
<g>
</g>
<g>
</g>
<g>
</g>
<g>
</g>
<g>
</g>
<g>
</g>
<g>
</g>
<g>
</g>
<g>
</g>
</svg>
