<?xml version="1.0" encoding="iso-8859-1"?>
<!-- Generator: Adobe Illustrator 19.0.0, SVG Export Plug-In . SVG Version: 6.00 Build 0)  -->
<svg version="1.1" id="Layer_1" xmlns="http://www.w3.org/2000/svg" xmlns:xlink="http://www.w3.org/1999/xlink" x="0px" y="0px"
	 viewBox="0 0 512 512" style="enable-background:new 0 0 512 512;" xml:space="preserve">
<g>
	<g>
		<path d="M397.546,107.711V11.344C397.546,5.08,392.466,0,386.201,0c-6.264,0-11.344,5.08-11.344,11.344v90.149
			c-10.978,2.847-29.959,9.173-50.348,22.293c-22.805,14.674-50.95,40.447-68.508,83.829
			c-17.558-43.383-45.702-69.155-68.508-83.829c-20.388-13.119-39.37-19.446-50.348-22.293V45.378
			c0-6.264-5.08-11.344-11.344-11.344s-11.344,5.08-11.344,11.344v62.333c-14.44,26.248-20.036,55.107-16.572,85.844
			c4.125,36.719,35.235,64.407,72.364,64.407H256h85.753c37.129,0,68.24-27.688,72.364-64.404
			C417.58,162.819,411.986,133.959,397.546,107.711z M170.247,235.274v0.001c-25.566,0-46.983-19.025-49.817-44.255
			c-2.711-24.062,1.097-46.718,11.32-67.469c9.378,2.47,26.294,8.109,44.289,19.849c32.268,21.053,54.261,51.92,65.505,91.873
			H170.247z M391.57,191.023c-2.834,25.227-24.251,44.251-49.817,44.251h-71.297c11.245-39.954,33.237-70.821,65.505-91.873
			c17.999-11.744,34.921-17.383,44.288-19.851C390.473,144.301,394.282,166.959,391.57,191.023z"/>
	</g>
</g>
<g>
	<g>
		<path d="M385.998,348.952c-3.121-2.11-7.086-2.532-10.58-1.13c-0.539,0.216-54.648,21.624-122.695,21.624
			c-67.812,0-122.163-21.409-122.695-21.624c-3.496-1.402-7.459-0.98-10.58,1.13c-3.121,2.109-4.99,5.631-4.99,9.398v53.286
			c0,5.593,4.092,10.353,9.618,11.213c0.852,0.132,85.361,14.017,106.981,81.279c1.508,4.691,5.873,7.872,10.801,7.872h21.736
			c4.928,0,9.292-3.182,10.801-7.872c21.62-67.262,106.129-81.147,106.964-81.278c5.541-0.845,9.634-5.61,9.634-11.215V358.35
			C390.988,354.584,389.119,351.061,385.998,348.952z M368.301,402.402h-0.001c-9.669,2.317-25.534,6.961-42.678,15.453
			c-33.916,16.801-57.955,41.392-69.994,71.456h-5.81c-12.04-30.064-36.08-54.656-69.994-71.456
			c-17.144-8.492-33.009-13.137-42.678-15.453v-28.12c20.261,6.363,58.465,16.214,104.233,17.664v16.638
			c0,6.264,5.08,11.344,11.345,11.344c6.264,0,11.344-5.08,11.344-11.344v-16.638c45.767-1.451,83.971-11.301,104.233-17.665
			V402.402z"/>
	</g>
</g>
<g>
	<g>
		<path d="M125.799,0c-6.262,0-11.345,5.082-11.345,11.344c0,6.262,5.082,11.345,11.345,11.345c6.262,0,11.344-5.082,11.344-11.345
			C137.144,5.082,132.062,0,125.799,0z"/>
	</g>
</g>
<g>
</g>
<g>
</g>
<g>
</g>
<g>
</g>
<g>
</g>
<g>
</g>
<g>
</g>
<g>
</g>
<g>
</g>
<g>
</g>
<g>
</g>
<g>
</g>
<g>
</g>
<g>
</g>
<g>
</g>
</svg>
