<?xml version="1.0" encoding="iso-8859-1"?>
<!-- Generator: Adobe Illustrator 19.0.0, SVG Export Plug-In . SVG Version: 6.00 Build 0)  -->
<svg version="1.1" id="Capa_1" xmlns="http://www.w3.org/2000/svg" xmlns:xlink="http://www.w3.org/1999/xlink" x="0px" y="0px"
	 viewBox="0 0 463.001 463.001" style="enable-background:new 0 0 463.001 463.001;" xml:space="preserve">
<path d="M462.885,312.189c-0.567-3.188-3.117-5.653-6.324-6.111l-97.797-13.971c0.144-0.849,0.237-1.715,0.237-2.604v-16
	c0-6.165-3.627-11.485-8.851-13.98L330.74,136.597c-1.333-8.448-5.909-15.827-12.884-20.776c-6.975-4.95-15.451-6.834-23.865-5.303
	l-62.49,11.362l-62.49-11.362c-8.417-1.532-16.89,0.353-23.865,5.303c-6.975,4.95-11.551,12.328-12.884,20.776l-19.409,122.925
	c-5.224,2.495-8.851,7.815-8.851,13.98v16c0,0.889,0.092,1.756,0.237,2.604L6.44,306.078c-3.207,0.458-5.756,2.923-6.324,6.111
	c-0.567,3.189,0.977,6.381,3.829,7.917c2.495,1.343,62.986,32.896,227.556,32.896s225.061-31.553,227.556-32.896
	C461.908,318.57,463.452,315.378,462.885,312.189z M119.5,290.002c-0.276,0-0.5-0.224-0.5-0.5v-16c0-0.276,0.224-0.5,0.5-0.5h224
	c0.276,0,0.5,0.224,0.5,0.5v16c0,0.276-0.224,0.5-0.5,0.5H119.5z M147.078,138.936c0.699-4.425,3.095-8.29,6.749-10.883
	c3.653-2.592,8.092-3.58,12.5-2.778l63.667,11.576c10.092,2.213,24.447,11.389,29.136,14.745c1.324,0.95,2.851,1.406,4.365,1.406
	c2.335,0,4.636-1.087,6.101-3.129c2.415-3.366,1.643-8.051-1.723-10.465c-0.373-0.267-4.73-3.372-10.824-6.928l39.626-7.205
	c4.407-0.8,8.847,0.186,12.5,2.778c3.654,2.593,6.05,6.458,6.749,10.883l18.8,119.066H128.278L147.078,138.936z M231.5,338.002
	c-100.653,0-161.696-12.196-193.265-21.314l81.799-11.686h222.932l81.955,11.708C393.514,325.827,332.631,338.002,231.5,338.002z"/>
<g>
</g>
<g>
</g>
<g>
</g>
<g>
</g>
<g>
</g>
<g>
</g>
<g>
</g>
<g>
</g>
<g>
</g>
<g>
</g>
<g>
</g>
<g>
</g>
<g>
</g>
<g>
</g>
<g>
</g>
</svg>
