<?xml version="1.0" encoding="iso-8859-1"?>
<!-- Generator: Adobe Illustrator 19.0.0, SVG Export Plug-In . SVG Version: 6.00 Build 0)  -->
<svg version="1.1" id="Layer_1" xmlns="http://www.w3.org/2000/svg" xmlns:xlink="http://www.w3.org/1999/xlink" x="0px" y="0px"
	 viewBox="0 0 512 512" style="enable-background:new 0 0 512 512;" xml:space="preserve">
<g>
	<g>
		<g>
			<path d="M499.636,325.607c-4.719-39.51-38.461-69.837-78.754-69.837c-33.655,0-120.444-24.012-166.347-69.914
				c-8.313-8.313-16.171-13.802-23.587-17.185c-7.963-18.869-20.302-44.611-50.245-44.609c-18.076,0-32.093,7.289-37.495,19.499
				c-3.872,8.755-4.677,23.082,10.81,43.489c-2.394,0.751-4.732,1.195-7.001,1.195c-12.458,0-24.243-4.577-37.891-9.877
				c-16.088-6.248-34.325-13.329-56.831-13.329c-21.057,0-34.998,12.996-41.437,38.628c-5.01,19.948-4.993,45.301-4.977,67.667
				l0.001,39.029C2.207,314.786,0,320.599,0,327.055v35.624c0,14.164,10.599,25.259,24.129,25.259h459.218
				c15.799,0,28.653-12.854,28.653-28.652v-10.126C512,339.41,507.099,330.785,499.636,325.607z M368.993,263.951
				c20.976,5.6,39.471,8.407,51.89,8.407c29.416,0,54.409,20.435,61.02,48.149h-38.143c-34.321,0-102.084-4.194-170.385-8.578
				c-1.31-17.083,2.306-29.659,10.428-35.773c7.399-5.572,18.681-5.823,30.176-0.669c14.417,6.463,29.963,6.248,42.657-0.59
				C361.935,272.041,366.196,268.212,368.993,263.951z M158.377,150.273c2.626-5.936,11.181-9.624,22.327-9.624
				c14.568-0.001,22.851,9.506,29.913,23.478c-15.148,0.07-28.012,7.644-38.736,13.963c-0.872,0.514-1.739,1.023-2.602,1.527
				C159.389,167.484,155.42,156.957,158.377,150.273z M52.296,181.628c19.399,0,35.376,6.205,50.826,12.205
				c14.569,5.657,28.33,11.001,43.895,11.001c12.151,0,22.894-6.331,33.283-12.452c15.353-9.048,29.05-17.095,47.269-6.819
				c-16.571,4.15-32.054,12.421-46.192,19.977c-14.046,7.507-27.313,14.599-37.379,15.034
				c-28.711,1.253-54.286-10.732-76.846-21.297c-10.162-4.759-19.927-9.328-29.493-12.546
				C42.411,182.467,47.642,181.628,52.296,181.628z M26.947,207.711c0.585-2.328,1.222-4.442,1.901-6.378
				c9.713,2.867,20.244,7.797,31.272,12.963c23.048,10.795,49.013,22.956,79.62,22.956c1.645,0,3.306-0.035,4.979-0.107
				c13.838-0.599,28.722-8.554,44.48-16.977c17.135-9.158,36.432-19.467,55.63-20.602c28.486,27.504,69.554,47.232,106.441,59.154
				c-0.753,0.543-1.57,1.076-2.5,1.577c-3.841,2.07-14.26,6.219-28.003,0.057c-17.093-7.662-34.64-6.708-46.938,2.553
				c-9,6.776-18.713,20.507-17.153,47.95c-0.007,0-0.012-0.001-0.018-0.001c-49.72-3.2-97.546-6.279-133.302-7.892
				c-28.042-40.968-73.989-59.908-100.291-65.626C23.635,226.674,24.753,216.444,26.947,207.711z M22.538,254.209
				c21.446,5.174,55.182,19.446,79.339,47.925c-7.164-0.218-13.531-0.338-18.932-0.338H24.128c-0.558,0-1.11,0.025-1.659,0.063
				l-0.001-30.532C22.465,265.76,22.463,260,22.538,254.209z M263.324,371.352H24.129c-5.182,0-7.543-4.495-7.543-8.673v-35.624
				c0-4.178,2.36-8.674,7.543-8.674h58.817c32.424,0,100.535,4.383,172.645,9.025c11.038,0.711,22.13,1.424,33.143,2.125
				c2.003,8.319,1.011,11.447,0.748,12.061C288.725,343.35,284.621,350.582,263.324,371.352z M418.44,371.352H286.667
				c14.731-15.504,17.14-21.085,18.052-23.21c1.956-4.55,2.339-10.342,1.154-17.527c44.916,2.814,87.231,5.252,117.31,6.13
				C423.578,347.261,421.992,358.852,418.44,371.352z M495.413,359.286c0,6.654-5.414,12.065-12.066,12.065h-47.729
				c3.075-12.128,4.474-23.595,4.178-34.275c1.362,0.011,2.69,0.018,3.964,0.018h39.587c6.653,0,12.066,5.413,12.066,12.066V359.286
				z"/>
			<circle cx="293.412" cy="245.978" r="8.293"/>
			<circle cx="265.579" cy="230.876" r="8.293"/>
			<path d="M117.962,336.573H61.935c-4.58,0-8.293,3.713-8.293,8.293s3.713,8.293,8.293,8.293h56.027
				c4.58,0,8.293-3.713,8.293-8.293S122.542,336.573,117.962,336.573z"/>
			<path d="M128.543,266.9h63.03c4.58,0,8.293-3.713,8.293-8.293c0-4.58-3.713-8.293-8.293-8.293h-63.03
				c-4.58,0-8.293,3.713-8.293,8.293C120.25,263.188,123.963,266.9,128.543,266.9z"/>
			<path d="M137.128,283.867c0,4.58,3.713,8.293,8.293,8.293h63.03c4.58,0,8.293-3.713,8.293-8.293s-3.713-8.293-8.293-8.293h-63.03
				C140.841,275.574,137.128,279.287,137.128,283.867z"/>
			<circle cx="240.494" cy="213.493" r="8.293"/>
		</g>
	</g>
</g>
<g>
</g>
<g>
</g>
<g>
</g>
<g>
</g>
<g>
</g>
<g>
</g>
<g>
</g>
<g>
</g>
<g>
</g>
<g>
</g>
<g>
</g>
<g>
</g>
<g>
</g>
<g>
</g>
<g>
</g>
</svg>
