<?xml version="1.0" encoding="iso-8859-1"?>
<!-- Generator: Adobe Illustrator 19.0.0, SVG Export Plug-In . SVG Version: 6.00 Build 0)  -->
<svg version="1.1" id="Layer_1" xmlns="http://www.w3.org/2000/svg" xmlns:xlink="http://www.w3.org/1999/xlink" x="0px" y="0px"
	 viewBox="0 0 503.872 503.872" style="enable-background:new 0 0 503.872 503.872;" xml:space="preserve">
<g>
	<g>
		<g>
			<path d="M503.872,324.488c0-23.875-13.649-40.873-33.694-48.502c-1.228-0.467-1.228-0.467-2.455-0.934
				c-0.944-0.359-0.944-0.359-1.887-0.717c-21.201-8.058-30.716-11.863-42.14-17.116c-13.949-6.416-25.143-11.454-33.357-14.95
				c-6.638-2.837-11.183-4.605-13.85-5.336c-0.013-0.004-0.026-0.007-0.039-0.011c-0.159-0.043-0.317-0.086-0.463-0.121
				c-0.192-0.048-0.373-0.09-0.538-0.124c-0.007-0.001-0.015-0.004-0.022-0.005c-1.478-0.297-11.549-6.036-25.899-14.563
				l0.538-0.538c3.278-3.278,3.278-8.592,0-11.87c-3.278-3.278-8.592-3.278-11.87,0l-3.515,3.515
				c-6.865-4.14-14.225-8.612-21.783-13.231l1.627-1.627c3.278-3.278,3.278-8.592,0-11.87c-3.278-3.278-8.592-3.278-11.87,0
				l-4.47,4.47c-5.521-3.399-11.039-6.811-16.45-10.17l1.446-1.446c3.278-3.278,3.278-8.592,0-11.87
				c-3.278-3.278-8.592-3.278-11.87,0l-4.2,4.2c-0.38-0.238-0.755-0.473-1.133-0.71c-2.683-1.681-5.308-3.33-7.85-4.933
				c-0.057-0.036-0.117-0.073-0.174-0.11c-0.045-0.028-0.089-0.056-0.134-0.084c-1.751-1.104-3.46-2.184-5.13-3.242
				c-0.42-0.266-0.834-0.529-1.249-0.792c-14.285-9.059-25.229-16.201-29.277-19.239c-1.225-0.918-2.504-1.707-3.833-2.372
				c-5.751-2.88-12.431-3.444-19.658-2.192c-5.99,1.038-12.149,3.28-18.334,6.356c-4.632,2.304-8.396,4.601-10.897,6.325
				c-0.222,0.153-0.45,0.309-0.652,0.452c-0.013,0.011-0.027,0.022-0.04,0.033c-4.426,3.677-8.343,6.81-12.659,10.133
				c-0.294,0.226-0.567,0.467-0.82,0.719c-44.57,34.332-70.066,37.51-82.794,24.83c-1.961-1.953-3.156-3.854-3.691-5.033
				c-2.943-17.566-8.279-27.66-17.168-30.69c-7.037-2.399-13.394,0.238-19.029,5.316c-2.179,1.964-3.815,3.897-4.851,5.349
				C-4.019,214.446-6.087,264.747,9.355,308.28c1.661,4.683,3.333,8.731,4.896,12.116c-3.426,3.074-5.595,7.521-5.595,12.485v16.779
				c0,9.276,7.516,16.787,16.787,16.787l426.395,0.008c7.423,0.274,16.066-0.598,24.625-3.633
				c16.668-5.911,27.293-18.532,27.406-38.278C503.869,324.525,503.872,324.507,503.872,324.488z M385.983,258.676
				c-10.829,15.725-32.234,20.257-48.553,10.011L175.732,167.155c1.064-0.875,2.134-1.76,3.211-2.664
				c0.036-0.03,0.073-0.06,0.109-0.09c-0.119,0.117,0.73-0.451,1.948-1.21c2.083-1.296,4.383-2.596,6.812-3.804
				c4.85-2.412,9.557-4.125,13.733-4.847c3.543-0.613,6.393-0.472,8.579,0.373c0.727,0.281,1.38,0.64,1.96,1.076
				c4.531,3.399,15.682,10.718,30.107,19.885c4.005,2.545,8.26,5.231,12.7,8.018l-8.761,8.761c-3.278,3.278-3.278,8.592,0,11.87
				s8.592,3.278,11.87,0l11.508-11.508c5.384,3.343,10.903,6.751,16.458,10.163l-6.259,6.259c-3.278,3.278-3.278,8.592,0,11.87
				c3.278,3.278,8.592,3.278,11.87,0l9.121-9.121c7.471,4.546,14.835,8.993,21.834,13.18l-9.257,9.257
				c-3.278,3.278-3.278,8.592,0,11.87c3.278,3.278,8.592,3.278,11.87,0l12.285-12.285c17.376,10.219,30.552,17.585,34.182,18.783
				c0.202,0.067,0.374,0.115,0.516,0.143c0.021,0.004,0.051,0.013,0.073,0.018C373.504,253.447,378.543,255.464,385.983,258.676z
				 M41.759,170.997c0.03,0.002,0.926-1.058,2.068-2.087c1.583-1.427,2.565-1.834,2.375-1.898c1.386,0.472,4.141,5.807,6.158,18.367
				l0.357,1.42c1.144,3.296,3.609,7.654,7.912,11.94c19.285,19.212,52.339,15.704,101.065-20.577l166.808,104.741
				c24.606,15.449,57.082,8.022,72.541-16.585l0.475-0.758c4.684,2.111,9.772,4.429,15.162,6.908
				c11.882,5.464,21.636,9.364,43.19,17.556c0.943,0.358,0.943,0.358,1.885,0.717c1.225,0.466,1.225,0.466,2.449,0.932
				c11.406,4.341,19.468,12.592,22.019,24.42H117.268c0.327-2.793,0.503-5.591,0.503-8.393c0-41.718-33.823-75.541-75.541-75.541
				c-8.344,0-16.502,1.378-24.235,4.017C20.744,215.228,28.276,193.373,41.759,170.997z M30.843,316.079
				c-0.995-1.996-1.956-4.074-2.885-6.26c-0.02-0.048-0.041-0.094-0.061-0.143c-0.401-0.947-0.794-1.924-1.184-2.915
				c-0.135-0.343-0.269-0.691-0.403-1.041c-0.289-0.754-0.574-1.524-0.856-2.306c-0.09-0.25-0.182-0.495-0.271-0.748
				c-5.123-14.458-8.164-30.593-8.119-48.011c7.824-3.735,16.358-5.709,25.167-5.709c32.447,0,58.754,26.307,58.754,58.754
				c0,2.786-0.216,5.582-0.642,8.393H30.85C30.848,316.089,30.845,316.084,30.843,316.079z M470.852,347
				c-6.228,2.209-12.923,2.884-18.144,2.699c-0.339-0.014-427.265-0.04-427.265-0.04l0-16.779h0.428h0.003h81.305h378.704
				C483.696,339.854,478.564,344.265,470.852,347z"/>
			<path d="M193.312,290.914c22.585,0,41.967-9.69,41.967-25.18c0-15.491-19.382-25.18-41.967-25.18s-41.967,9.69-41.967,25.18
				C151.345,281.224,170.727,290.914,193.312,290.914z M173.325,261.37c5.024-2.512,12.204-4.03,19.987-4.03
				s14.962,1.518,19.987,4.03c3.706,1.853,5.194,3.611,5.194,4.364c0,0.753-1.487,2.511-5.194,4.364
				c-5.024,2.512-12.204,4.03-19.987,4.03s-14.962-1.518-19.987-4.03c-3.706-1.853-5.194-3.611-5.194-4.364
				C168.132,264.981,169.619,263.222,173.325,261.37z"/>
		</g>
	</g>
</g>
<g>
</g>
<g>
</g>
<g>
</g>
<g>
</g>
<g>
</g>
<g>
</g>
<g>
</g>
<g>
</g>
<g>
</g>
<g>
</g>
<g>
</g>
<g>
</g>
<g>
</g>
<g>
</g>
<g>
</g>
</svg>
