<?xml version="1.0" encoding="iso-8859-1"?>
<!-- Generator: Adobe Illustrator 18.0.0, SVG Export Plug-In . SVG Version: 6.00 Build 0)  -->
<!DOCTYPE svg PUBLIC "-//W3C//DTD SVG 1.1//EN" "http://www.w3.org/Graphics/SVG/1.1/DTD/svg11.dtd">
<svg version="1.1" id="Capa_1" xmlns="http://www.w3.org/2000/svg" xmlns:xlink="http://www.w3.org/1999/xlink" x="0px" y="0px"
	 viewBox="0 0 393.432 393.432" style="enable-background:new 0 0 393.432 393.432;" xml:space="preserve">
<g>
	<path d="M114.18,181.563h-4.31v-34.948c0-4.142-3.357-7.5-7.5-7.5h-0.644v-71.5c0-2.84-1.604-5.437-4.146-6.708l-58.04-29.028
		c-2.324-1.162-5.085-1.039-7.297,0.328c-2.212,1.366-3.558,3.78-3.558,6.38v100.528h-0.644c-4.143,0-7.5,3.358-7.5,7.5v34.948
		h-4.317c-4.143,0-7.5,3.358-7.5,7.5v196.869c0,4.142,3.357,7.5,7.5,7.5h97.954c4.143,0,7.5-3.358,7.5-7.5V189.063
		C121.68,184.921,118.323,181.563,114.18,181.563z M43.687,50.724l43.04,21.526v66.865h-43.04V50.724z M35.544,154.115h59.327
		v27.448H35.544V154.115z M106.68,378.432H23.726V196.563h82.954V378.432z"/>
	<path d="M377.205,304.276H133.601c-4.143,0-7.5,3.358-7.5,7.5s3.357,7.5,7.5,7.5h231.671l-1.715,3.565
		c-9.421,19.576-29.546,32.226-51.271,32.226H133.601c-4.143,0-7.5,3.358-7.5,7.5s3.357,7.5,7.5,7.5h178.685
		c27.453,0,52.884-15.984,64.787-40.722l6.89-14.317c1.119-2.324,0.965-5.06-0.408-7.243
		C382.182,305.602,379.784,304.276,377.205,304.276z"/>
	<path d="M116.284,55.149C144.249,29.259,180.653,15,218.792,15c83.214,0,150.914,67.7,150.914,150.914
		c0,44.863-19.769,87.106-54.236,115.897c-3.18,2.656-3.604,7.385-0.948,10.564c1.483,1.776,3.613,2.692,5.76,2.692
		c1.695,0,3.401-0.572,4.804-1.744c37.891-31.649,59.621-78.088,59.621-127.41C384.706,74.429,310.277,0,218.792,0
		c-41.929,0-81.952,15.677-112.699,44.143c-3.039,2.814-3.222,7.559-0.408,10.599C108.498,57.78,113.243,57.963,116.284,55.149z"/>
	<path d="M218.788,46.194c66.016,0,119.724,53.708,119.724,119.724s-53.708,119.724-119.724,119.724
		c-29.679,0-58.147-10.938-80.163-30.797c-3.074-2.774-7.817-2.531-10.593,0.545c-2.774,3.075-2.53,7.818,0.546,10.592
		c24.776,22.351,56.813,34.66,90.21,34.66c74.287,0,134.724-60.437,134.724-134.724S293.075,31.194,218.788,31.194
		c-42.665,0-83.253,20.54-108.572,54.945c-2.456,3.336-1.741,8.031,1.595,10.486c3.336,2.454,8.029,1.741,10.486-1.595
		C144.801,64.451,180.873,46.194,218.788,46.194z"/>
	<path d="M301.297,106.834L164.429,243.702c-2.929,2.929-2.929,7.678,0,10.606c1.465,1.464,3.385,2.197,5.304,2.197
		s3.839-0.732,5.304-2.197L311.904,117.44c2.929-2.929,2.929-7.678,0-10.606C308.974,103.905,304.226,103.905,301.297,106.834z"/>
	<path d="M206.107,244.628c-2.929,2.929-2.929,7.678,0,10.606c1.465,1.464,3.385,2.197,5.304,2.197s3.839-0.732,5.304-2.197
		l102.76-102.76c2.929-2.929,2.929-7.678,0-10.606c-2.93-2.929-7.678-2.929-10.607,0L206.107,244.628z"/>
</g>
<g>
</g>
<g>
</g>
<g>
</g>
<g>
</g>
<g>
</g>
<g>
</g>
<g>
</g>
<g>
</g>
<g>
</g>
<g>
</g>
<g>
</g>
<g>
</g>
<g>
</g>
<g>
</g>
<g>
</g>
</svg>
