<?xml version="1.0" encoding="iso-8859-1"?>
<!-- Generator: Adobe Illustrator 18.0.0, SVG Export Plug-In . SVG Version: 6.00 Build 0)  -->
<!DOCTYPE svg PUBLIC "-//W3C//DTD SVG 1.1//EN" "http://www.w3.org/Graphics/SVG/1.1/DTD/svg11.dtd">
<svg version="1.1" id="Capa_1" xmlns="http://www.w3.org/2000/svg" xmlns:xlink="http://www.w3.org/1999/xlink" x="0px" y="0px"
	 viewBox="0 0 397.778 397.778" style="enable-background:new 0 0 397.778 397.778;" xml:space="preserve">
<g>
	<path d="M397.062,227.961c-4.585-42.447-43.797-100.497-49.572-108.851l-0.352-17.26c-0.083-4.082-3.416-7.348-7.499-7.348h-69.035
		v-0.732c0-19.653-15.989-35.643-35.642-35.643h-72.146c-19.653,0-35.643,15.989-35.643,35.643v0.732H58.139
		c-4.083,0-7.415,3.266-7.499,7.348l-0.352,17.282c-5.827,8.428-44.986,66.413-49.57,108.826
		c-2.506,23.176,1.548,40.746,12.052,52.223c8.024,8.767,19.425,13.664,33.938,14.625l-0.758,37.19
		c-0.041,2.016,0.731,3.963,2.142,5.402c1.411,1.439,3.341,2.251,5.357,2.251H344.35c4.142,0,7.5-3.357,7.5-7.5
		c0-0.238-0.011-0.474-0.033-0.706l-0.747-36.638c14.509-0.96,25.907-5.857,33.931-14.622
		C395.506,268.71,399.564,251.14,397.062,227.961z M142.173,93.771c0-11.383,9.26-20.643,20.643-20.643h72.146
		c11.382,0,20.642,9.26,20.642,20.643v0.732H142.173V93.771z M65.488,109.503h266.803l1.381,67.742
		c-1.768,23.442-21.388,41.981-45.275,41.981h-9.785v-10.042c0-10.288-8.369-18.658-18.656-18.658
		c-10.287,0-18.656,8.37-18.656,18.658v10.042h-84.821v-10.042c0-10.288-8.369-18.658-18.656-18.658s-18.656,8.37-18.656,18.658
		v10.042h-9.62c-24.628,0-44.727-19.704-45.394-44.174L65.488,109.503z M263.612,209.185v29.357c0,2.016-1.64,3.656-3.656,3.656
		c-2.016,0-3.656-1.641-3.656-3.656v-29.357c0-2.018,1.64-3.658,3.656-3.658C261.972,205.527,263.612,207.168,263.612,209.185z
		 M141.478,209.185v29.357c0,2.016-1.64,3.656-3.656,3.656s-3.656-1.641-3.656-3.656v-29.357c0-2.018,1.64-3.658,3.656-3.658
		S141.478,207.168,141.478,209.185z M23.836,270.054c-7.467-8.158-10.227-21.778-8.204-40.482
		c2.81-26.001,21.013-60.088,34.071-81.717l-2.689,131.938C36.821,278.996,29.035,275.735,23.836,270.054z M61.103,324.65
		l2.281-111.924c11.088,13.138,27.662,21.501,46.162,21.501h9.62v4.315c0,10.287,8.369,18.656,18.656,18.656
		s18.656-8.369,18.656-18.656v-4.315h84.821v4.315c0,10.287,8.369,18.656,18.656,18.656c10.287,0,18.656-8.369,18.656-18.656v-4.315
		h9.785c18.411,0,34.914-8.285,46.001-21.314l2.277,111.737H61.103z M373.938,270.055c-5.198,5.677-12.981,8.944-23.173,9.734
		l-2.69-131.953c13.057,21.629,31.265,55.729,34.074,81.735C384.168,248.278,381.405,261.899,373.938,270.055z"/>
</g>
<g>
</g>
<g>
</g>
<g>
</g>
<g>
</g>
<g>
</g>
<g>
</g>
<g>
</g>
<g>
</g>
<g>
</g>
<g>
</g>
<g>
</g>
<g>
</g>
<g>
</g>
<g>
</g>
<g>
</g>
</svg>
