<?xml version="1.0" encoding="iso-8859-1"?>
<!-- Generator: Adobe Illustrator 19.0.0, SVG Export Plug-In . SVG Version: 6.00 Build 0)  -->
<svg version="1.1" id="Layer_1" xmlns="http://www.w3.org/2000/svg" xmlns:xlink="http://www.w3.org/1999/xlink" x="0px" y="0px"
	 viewBox="0 0 463 463" style="enable-background:new 0 0 463 463;" xml:space="preserve">
<g>
	<g>
		<g>
			<path d="M215.5,96C140.785,96,80,156.785,80,231.5S140.785,367,215.5,367S351,306.215,351,231.5S290.215,96,215.5,96z M215.5,352
				C149.056,352,95,297.944,95,231.5S149.056,111,215.5,111S336,165.056,336,231.5S281.944,352,215.5,352z"/>
			<path d="M391.5,192h-13.217c-2.723-11.219-6.574-22.001-11.433-32.215l-13.902-99.536C351.335,48.705,341.33,40,329.673,40H327
				V23.5C327,10.542,316.458,0,303.5,0h-176C114.542,0,104,10.542,104,23.5V40h-2.58c-11.656,0-21.662,8.705-23.274,20.249
				l-13.862,99.248C53.851,181.322,48,205.74,48,231.5c0,25.777,5.858,50.21,16.305,72.045l13.839,100.828
				c1.604,11.692,11.611,20.509,23.276,20.509H104V439.5c0,12.958,10.542,23.5,23.5,23.5h176c12.958,0,23.5-10.542,23.5-23.5
				v-14.618h2.673c11.665,0,21.672-8.817,23.276-20.509l13.879-101.114c4.87-10.228,8.728-21.025,11.454-32.26H391.5
				c12.958,0,23.5-10.542,23.5-23.5v-32C415,202.542,404.458,192,391.5,192z M327.094,55h2.579c4.216,0,7.835,3.148,8.418,7.324
				l9.207,65.917c-6.093-7.76-12.861-14.963-20.204-21.537V55z M119,47.5v-24c0-4.687,3.813-8.5,8.5-8.5h8.5v24.5
				c0,4.142,3.358,7.5,7.5,7.5c4.142,0,7.5-3.358,7.5-7.5V15h129v24.5c0,4.142,3.358,7.5,7.5,7.5c4.142,0,7.5-3.358,7.5-7.5V15h8.5
				c4.687,0,8.5,3.813,8.5,8.5V64H119V47.5z M312.094,79v15.732c-8.557-6.061-17.705-11.34-27.339-15.732H312.094z M119,79h27.245
				c-9.599,4.377-18.715,9.634-27.245,15.667V79z M93.002,62.324C93.585,58.148,97.205,55,101.42,55H104v16.5v35.12
				c-7.334,6.555-14.095,13.737-20.184,21.474L93.002,62.324z M103.999,391.499v18.382h-2.579v0.001
				c-4.207,0-7.825-3.245-8.416-7.549l-9.269-67.53c6.11,7.776,12.899,14.992,20.264,21.576V391.499z M312,439.5
				c0,4.687-3.813,8.5-8.5,8.5H295v-24.5c0-4.142-3.358-7.5-7.5-7.5c-4.142,0-7.5,3.358-7.5,7.5V448H151v-24.5
				c0-4.142-3.358-7.5-7.5-7.5c-4.142,0-7.5,3.358-7.5,7.5V448h-8.5c-4.687,0-8.5-3.813-8.5-8.5v-22.118V399h193V439.5z M119,384
				v-15.667c8.53,6.034,17.646,11.291,27.245,15.667H119z M312.094,384h-27.339c9.634-4.393,18.782-9.671,27.339-15.732V384z
				 M338.089,402.333c-0.591,4.304-4.209,7.549-8.416,7.549h-2.579v-53.586c7.376-6.603,14.171-13.843,20.285-21.642
				L338.089,402.333z M215.5,384C131.411,384,63,315.589,63,231.5S131.411,79,215.5,79S368,147.411,368,231.5S299.589,384,215.5,384
				z M400,247.5c0,4.687-3.813,8.5-8.5,8.5h-10.297c1.178-8,1.797-16.178,1.797-24.5s-0.619-16.5-1.797-24.5H391.5
				c4.687,0,8.5,3.813,8.5,8.5V247.5z"/>
			<path d="M119.5,224h-8c-4.142,0-7.5,3.358-7.5,7.5c0,4.142,3.358,7.5,7.5,7.5h8c4.142,0,7.5-3.358,7.5-7.5
				C127,227.358,123.642,224,119.5,224z"/>
			<path d="M311.5,239h8c4.142,0,7.5-3.358,7.5-7.5c0-4.142-3.358-7.5-7.5-7.5h-8c-4.142,0-7.5,3.358-7.5,7.5
				C304,235.642,307.358,239,311.5,239z"/>
			<path d="M215.5,320c-4.142,0-7.5,3.358-7.5,7.5v8c0,4.142,3.358,7.5,7.5,7.5c4.142,0,7.5-3.358,7.5-7.5v-8
				C223,323.358,219.642,320,215.5,320z"/>
			<path d="M215.5,143c4.142,0,7.5-3.358,7.5-7.5v-8c0-4.142-3.358-7.5-7.5-7.5c-4.142,0-7.5,3.358-7.5,7.5v8
				C208,139.642,211.358,143,215.5,143z"/>
			<path d="M236.545,241.94c1.568-3.147,2.454-6.691,2.454-10.439c0-10.336-6.71-19.128-16-22.266V191.5c0-4.142-3.358-7.5-7.5-7.5
				c-4.142,0-7.5,3.358-7.5,7.5v17.734c-1.012,0.342-1.994,0.749-2.939,1.22l-40.258-40.258c-2.929-2.929-7.678-2.929-10.606,0
				c-2.929,2.929-2.929,7.678,0,10.606l40.258,40.259c-1.568,3.147-2.454,6.691-2.454,10.439c0,10.336,6.71,19.128,16,22.266V303.5
				c0,4.142,3.358,7.5,7.5,7.5c4.142,0,7.5-3.358,7.5-7.5v-49.734c1.012-0.342,1.994-0.749,2.939-1.22l11.103,11.103
				c1.464,1.464,3.384,2.197,5.303,2.197c1.919,0,3.839-0.732,5.303-2.197c2.929-2.929,2.929-7.678,0-10.606L236.545,241.94z
				 M215.539,239.998c-0.013,0-0.026-0.002-0.039-0.002s-0.026,0.002-0.039,0.002c-4.669-0.021-8.461-3.824-8.461-8.498
				c0-4.684,3.808-8.494,8.49-8.5c0.003,0,0.006,0,0.01,0c0.004,0,0.006,0,0.01,0c4.683,0.005,8.49,3.816,8.49,8.5
				C224,236.174,220.208,239.977,215.539,239.998z"/>
		</g>
	</g>
</g>
<g>
</g>
<g>
</g>
<g>
</g>
<g>
</g>
<g>
</g>
<g>
</g>
<g>
</g>
<g>
</g>
<g>
</g>
<g>
</g>
<g>
</g>
<g>
</g>
<g>
</g>
<g>
</g>
<g>
</g>
</svg>
