<?xml version="1.0" encoding="iso-8859-1"?>
<!-- Generator: Adobe Illustrator 19.0.0, SVG Export Plug-In . SVG Version: 6.00 Build 0)  -->
<svg version="1.1" id="Layer_1" xmlns="http://www.w3.org/2000/svg" xmlns:xlink="http://www.w3.org/1999/xlink" x="0px" y="0px"
	 viewBox="0 0 512.001 512.001" style="enable-background:new 0 0 512.001 512.001;" xml:space="preserve">
<g>
	<g>
		<path d="M488.803,105.893c-10.758-18.827-21.36-34.373-21.807-35.026l-8.173-11.955l-12.532,7.256
			c-3.191,1.847-78.849,46.512-138.976,156.345c-64.018,116.941-102.45,124.387-125.811,119.805
			c-30.118-5.906-41.467-14.913-43.14-16.366l-7.051-9.332l-112.741,58.13l-0.814,0.56C15.942,376.561,0,388.064,0,406.695
			c0,8.008,0.88,19.331,8.487,25.172l3.65,2.802l215.401,17.551c1.919,0.288,6.568,0.869,12.893,0.868
			c5.436,0,12.112-0.428,19.353-1.84c24.466-4.765,43.348-18.334,54.604-39.238l3.11-5.79
			c11.163-20.808,28.031-52.254,46.812-79.223c26.011-37.35,43.381-48.594,53.375-51.449c12.661-3.618,22.749-6.442,30.705-8.636
			c-3.44,24.314-7.792,62.493-6.024,90.311v64.565h-4.728v31.213h41.358v-31.213h-5.417v-65.07l-0.034-1.038
			c-2.024-30.352,4.556-77.293,7.69-97.275l0.227-0.053l3.211-6.812c2.798-5.934,27.329-58.749,27.329-85.736
			C512,157.511,509.595,142.281,488.803,105.893z M459.48,231.593c-8.102,2.115-23.585,6.29-50.371,13.945
			c-44.5,12.714-84.818,81.992-119.116,145.929l-3.087,5.747c-16.19,30.065-53.334,24.369-54.825,24.126l-0.704-0.123
			L31.884,404.962c0.702-1.157,1.872-2.522,3.099-3.554l90.211-46.514c8.973,5.692,24.619,13.018,50.307,18.055
			c5.251,1.029,10.458,1.549,15.642,1.548c47.252-0.004,92.204-43.199,143.552-136.995c41.858-76.46,92.323-119.309,115.073-136.031
			c16.153,25.475,31.019,54.131,31.019,64.333C480.788,179.364,468.753,210.839,459.48,231.593z"/>
	</g>
</g>
<g>
</g>
<g>
</g>
<g>
</g>
<g>
</g>
<g>
</g>
<g>
</g>
<g>
</g>
<g>
</g>
<g>
</g>
<g>
</g>
<g>
</g>
<g>
</g>
<g>
</g>
<g>
</g>
<g>
</g>
</svg>
