<?xml version="1.0" encoding="iso-8859-1"?>
<!-- Generator: Adobe Illustrator 16.0.0, SVG Export Plug-In . SVG Version: 6.00 Build 0)  -->
<!DOCTYPE svg PUBLIC "-//W3C//DTD SVG 1.1//EN" "http://www.w3.org/Graphics/SVG/1.1/DTD/svg11.dtd">
<svg version="1.1" id="Capa_1" xmlns="http://www.w3.org/2000/svg" xmlns:xlink="http://www.w3.org/1999/xlink" x="0px" y="0px"
	 width="195.209px" height="195.209px" viewBox="0 0 195.209 195.209" style="enable-background:new 0 0 195.209 195.209;"
	 xml:space="preserve">
<g>
	<path d="M190.463,94.297c-2.582-19.383-1.88-43.567-15.2-59.508c-0.989-1.183-2.085-2.278-3.249-3.221
		c-0.499-1.121-0.996-2.243-1.536-3.352c-0.546-1.121-1.82-1.433-2.902-1.107c-0.371-1.104-1.315-1.975-2.842-1.931
		c-22.341,0.639-44.058,6.67-66.378,7.699c-0.369-0.179-0.776-0.304-1.219-0.332c-0.882-0.056-1.68,0.125-2.398,0.467
		C71.4,33.721,47.97,31.915,24.682,30.332c-0.304-0.251-0.585-0.536-0.9-0.771c-0.651-0.485-1.267-0.822-1.866-1.083
		c-0.14-0.144-0.267-0.296-0.41-0.438c-0.884-0.88-2.033-0.672-2.847,0.057C9.868,30.236,8.149,59.143,7.81,63.074
		C6.827,74.462,6.694,85.896,6.066,97.304c-1.091,19.844-8.77,39.871-5.062,59.767c-0.659,2.192,0.475,5.001,3.448,5.002
		c27.384,0.001,54.775-0.304,82.155,0.305c22.38,0.497,44.148,7.423,66.622,7.652c12.729,0.131,28.085-3.445,35.702-14.389
		c1.971-2.104,2.964-4.237,3.333-6.682C198.734,131.166,192.875,112.411,190.463,94.297z M167.388,36.695
		c0.558,0.416,1.112,0.926,1.656,1.526c3.963,11.073,6.211,22.629,7.788,34.31c-3.947,1.45-6.091,4.063-10.347,0.276
		c-1.242-1.104-2.971-0.874-3.894,0.502c-0.919,1.371-1.741,1.932-2.5,1.988C161.245,62.161,162,48.602,167.388,36.695z
		 M107.162,54.341c0.226,1.664,0.35,3.331,0.458,5c-0.312-0.089-0.638-0.16-0.998-0.144c-4.861,0.218-9.715,0.384-14.557,0.889
		c-2.277,0.237-4.876,0.484-7.139,1.335c-0.159-2.343-0.306-4.692-0.482-7.022c-0.003-0.033-0.02-0.054-0.023-0.087
		C91.993,54.469,99.584,54.292,107.162,54.341z M90.633,38.361c-0.022,0.066-0.053,0.133-0.074,0.198
		c-1.034,3.222-0.287,6.752,1.44,9.565c-3.269,0.355-6.513,0.884-9.697,1.72c-0.58,0.153-0.978,0.478-1.242,0.872
		c-2.046-0.289-4.28,0.892-4.441,3.683c-0.566,9.834,0.773,19.798,0.857,29.648c0.024,2.851,2.68,4.698,5.37,4.09
		c9.479-2.143,18.931-0.88,28.52-1.307c2.154-0.096,3.979-1.733,3.97-3.969c-0.047-11.086,0.59-22.036-1.764-32.955
		c-0.322-1.498-1.897-2.609-3.392-2.583c-4.188,0.074-8.418,0.121-12.633,0.355c0.042-0.35,0.021-0.729-0.089-1.139
		c-0.489-1.817-0.771-3.63-0.262-5.465c0.31-1.12,1.048-1.985,1.7-2.908c19.592-0.899,38.838-5.051,58.398-6.353
		c-0.306,0.366-0.607,0.744-0.899,1.174c-2.819,4.157-4.77,8.861-6.201,13.796c-1.906,4.421-2.775,9.402-2.97,14.602
		c-0.497,3.459-0.907,6.887-1.325,10.185c-2.804,22.095-4.748,44.956-6.013,67.198c-0.272-0.153-0.57-0.278-0.931-0.328
		c-27.528-3.846-55.307-1.65-82.971-0.833c-5.442-18.05-7.423-37.612-11.634-55.95c-3.02-13.149-5.906-34.603-15.398-46.883
		C49.472,36.733,69.995,38.271,90.633,38.361z M14.233,53.001c1.302-6.553,3.324-15.442,5.033-18.726
		c0.214-0.174,0.437-0.297,0.667-0.375c0.451,0.045,0.902,0.089,1.354,0.134c0.293,0.147,0.573,0.325,0.84,0.534
		c0.69,0.752,1.367,1.518,1.998,2.33c1.122,1.755,1.968,3.845,2.679,5.35c3.162,6.688,5.529,13.625,7.449,20.7
		c-2.566,1.508-3.994,2.066-6.792-1.807c-1.213-1.679-4.275-2.314-5.337,0c-2.528,5.504-6.21,3.307-7.924-1.488
		c-0.148-0.415-0.376-0.708-0.626-0.96C13.772,56.793,13.991,54.896,14.233,53.001z M138.198,163.344
		c7.409,0.475,14.815,0.736,22.196,0.499C153.28,164.697,145.578,164.241,138.198,163.344z M173.392,155.757
		c-25.371,7.354-57.335,0.582-83.328-0.988c-27.408-1.655-54.807-3.125-82.268-2.61c1.623-20.758,4.528-41.453,4.624-62.291
		c0.029-6.316,0.014-12.623,0.128-18.93c0.054-0.846,0.124-1.691,0.184-2.536c1.214,1.228,2.752,2.102,4.741,2.29
		c2.927,0.277,5.53-0.93,7.493-2.883c1.606,1.674,3.529,3.013,5.872,3.021c1.856,0.006,3.548-0.528,5.045-1.407
		c2.216,9.574,3.758,19.354,5.264,29.137c1.829,14.39,3.117,28.88,6.213,43.058c0.161,0.736,0.92,1.583,1.694,1.695
		c0.845,0.121,1.693,0.2,2.538,0.314c0.854,0.515,1.901,0.612,2.842,0.352c30.284,3.801,60.842,3.243,91.325,3.292
		c1.113,0.002,2.456-0.827,2.641-2.011c3.134-20.045,7.898-39.769,10.621-59.888c0.254-1.875,0.466-3.772,0.659-5.683
		c1.589,0.49,3.344,0.059,5.286-1.745c4.095,2.875,8.175,2.602,12.606,0.372c0.877,7.425,1.571,14.873,2.313,22.255
		c0.999,9.926,2.086,19.823,3.582,29.687C185.445,143.297,189.053,151.217,173.392,155.757z"/>
</g>
<g>
</g>
<g>
</g>
<g>
</g>
<g>
</g>
<g>
</g>
<g>
</g>
<g>
</g>
<g>
</g>
<g>
</g>
<g>
</g>
<g>
</g>
<g>
</g>
<g>
</g>
<g>
</g>
<g>
</g>
</svg>
