<?xml version="1.0" encoding="iso-8859-1"?>
<!-- Generator: Adobe Illustrator 19.0.0, SVG Export Plug-In . SVG Version: 6.00 Build 0)  -->
<svg version="1.1" id="Layer_1" xmlns="http://www.w3.org/2000/svg" xmlns:xlink="http://www.w3.org/1999/xlink" x="0px" y="0px"
	 viewBox="0 0 511.6 511.6" style="enable-background:new 0 0 511.6 511.6;" xml:space="preserve">
<g>
	<g>
		<path d="M494.862,358.193c-5.337-4.314-21.381-13.687-46.078-27.288c-1.587-0.873-1.587-0.873-3.175-1.746
			c-10.844-5.951-22.456-12.224-34.067-18.429c-4.063-2.171-7.836-4.18-11.223-5.976c-2.034-1.078-3.488-1.847-4.266-2.258
			c-2.61-1.376-5.746-1.306-8.292,0.185c-0.74,0.434-2.262,1.264-4.455,2.358c-3.718,1.856-7.89,3.719-12.4,5.458
			c-13.972,5.386-27.935,8.37-40.634,7.769c-10.684-0.506-19.943-3.549-27.631-9.476c-0.258-0.222-1.268-1.075-2.748-2.345
			c-2.487-2.133-5.377-4.652-8.636-7.543c-9.334-8.277-19.743-17.859-30.958-28.624c-32.054-30.766-64.111-64.81-94.012-101.146
			c-29.676-36.063-55.601-72.47-76.709-108.716c-2.277-3.91-7.211-5.363-11.244-3.311c-2.25,1.145-5.963,3.323-10.674,6.569
			c-1.347,0.927-2.576,1.769-4.797,3.287c-30.579,20.903-42.825,31.225-52.764,47.952c-13.45,22.638-13.746,49.366,0.826,82.645
			c3.047,6.958,6.103,13.026,10.686,21.503c0.672,1.242,1.304,2.405,2.594,4.777c26.327,48.41,35.129,91.036,35.129,222.739
			c0,4.713,3.821,8.533,8.533,8.533h17.067c4.439,0,8.137-3.403,8.504-7.827l15.81-190.385c5.194,3.625,10.82,7.734,16.788,12.314
			c21.609,16.583,43.225,35.844,63.381,57.541c15.474,16.658,29.465,34.119,41.62,52.319c32.257,48.33,80.068,75.694,135.726,76.037
			c1.451,0.008,2.635,0.046,5.097,0.148c1.749,0.072,2.413,0.098,3.353,0.124c3.53,0.099,6.376,0.022,9.38-0.329
			c28.409-3.321,67.86-10.546,94.695-18.654C514.077,425.89,523.102,381.018,494.862,358.193z M474.349,420.063
			c-25.713,7.769-64.248,14.826-91.741,18.04c-2.071,0.242-4.144,0.298-6.92,0.221c-0.836-0.023-1.455-0.047-3.124-0.116
			c-2.656-0.11-3.989-0.152-5.674-0.162c-49.844-0.307-92.461-24.699-121.66-68.447c-12.684-18.993-27.241-37.16-43.31-54.459
			c-20.85-22.446-43.169-42.332-65.495-59.465c-7.823-6.004-15.096-11.239-21.636-15.68c-2.301-1.563-4.35-2.917-6.124-4.059
			c-1.083-0.697-1.846-1.176-2.265-1.433c-5.419-3.321-12.437,0.235-12.963,6.57L77.078,438.045
			c-1.09-127.761-10.646-172.276-37.882-222.359c-1.292-2.374-1.913-3.517-2.574-4.739c-4.378-8.098-7.243-13.787-10.066-20.233
			c-12.48-28.502-12.248-49.475-1.787-67.082c8.2-13.801,19.265-23.127,47.043-42.115c2.914-1.992,4.154-2.841,5.525-3.784
			c0.657-0.453,1.289-0.88,1.892-1.28c20.76,34.62,45.675,69.252,73.878,103.526c30.358,36.892,62.864,71.413,95.372,102.615
			c11.382,10.924,21.956,20.657,31.452,29.08c3.331,2.954,6.292,5.535,8.849,7.729c1.546,1.326,2.621,2.233,3.191,2.708
			c10.882,8.397,23.498,12.543,37.493,13.206c15.415,0.729,31.583-2.726,47.58-8.892c5.041-1.943,9.702-4.025,13.885-6.113
			c1.248-0.555,1.321-0.517,1.394-0.478c3.371,1.788,7.128,3.787,11.175,5.95c11.559,6.178,23.118,12.421,33.9,18.339
			c1.578,0.866,1.578,0.866,3.153,1.734c23.352,12.861,39.422,22.248,43.582,25.611
			C501.674,385.643,496.071,413.501,474.349,420.063z"/>
	</g>
</g>
<g>
</g>
<g>
</g>
<g>
</g>
<g>
</g>
<g>
</g>
<g>
</g>
<g>
</g>
<g>
</g>
<g>
</g>
<g>
</g>
<g>
</g>
<g>
</g>
<g>
</g>
<g>
</g>
<g>
</g>
</svg>
