<?xml version="1.0" encoding="iso-8859-1"?>
<!-- Generator: Adobe Illustrator 19.0.0, SVG Export Plug-In . SVG Version: 6.00 Build 0)  -->
<svg version="1.1" id="Layer_1" xmlns="http://www.w3.org/2000/svg" xmlns:xlink="http://www.w3.org/1999/xlink" x="0px" y="0px"
	 viewBox="0 0 420.39 420.39" style="enable-background:new 0 0 420.39 420.39;" xml:space="preserve">
<g>
	<g>
		<path d="M370.189,217.641c-2.929-2.929-7.677-2.93-10.607,0l-37.202,37.202c-2.929,2.929-2.929,7.678,0,10.606
			c1.465,1.465,3.384,2.197,5.304,2.197c1.919,0,3.839-0.732,5.304-2.197l37.202-37.202
			C373.117,225.319,373.117,220.57,370.189,217.641z"/>
	</g>
</g>
<g>
	<g>
		<path d="M370.187,254.844c-1.391-1.4-3.33-2.2-5.301-2.2c-1.979,0-3.909,0.8-5.31,2.2c-1.39,1.39-2.19,3.33-2.19,5.3
			c0,1.98,0.801,3.91,2.19,5.31c1.4,1.39,3.33,2.19,5.31,2.19c1.971,0,3.91-0.8,5.301-2.19c1.399-1.4,2.199-3.33,2.199-5.31
			C372.386,258.174,371.586,256.244,370.187,254.844z"/>
	</g>
</g>
<g>
	<g>
		<path d="M332.987,217.644c-1.4-1.4-3.33-2.2-5.3-2.2c-1.98,0-3.91,0.8-5.311,2.2c-1.39,1.4-2.189,3.33-2.189,5.3
			c0,1.97,0.8,3.91,2.189,5.3c1.401,1.4,3.33,2.2,5.311,2.2c1.97,0,3.909-0.8,5.3-2.2c1.39-1.39,2.189-3.33,2.189-5.3
			C335.176,220.974,334.376,219.044,332.987,217.644z"/>
	</g>
</g>
<g>
	<g>
		<path d="M418.07,250.884c-0.95-3.444-1.844-6.697-1.844-9.339c0-2.643,0.895-5.896,1.843-9.339
			c1.763-6.408,3.761-13.67,0.828-20.743c-3.036-7.322-9.723-11.079-15.622-14.394c-2.997-1.684-5.828-3.274-7.534-4.98
			c-1.707-1.707-3.297-4.537-4.981-7.534c-2.941-5.235-6.237-11.084-12.057-14.459l28.341-37.13
			c1.972-2.583,2.056-6.142,0.208-8.815l-65.14-94.24c-1.4-2.026-3.707-3.235-6.17-3.235h-263.3c-2.463,0-4.77,1.209-6.17,3.235
			L1.331,124.15c-1.848,2.673-1.764,6.232,0.208,8.815l196.79,257.8c0.156,0.204,0.325,0.395,0.499,0.58
			c0.014,0.015,0.026,0.032,0.04,0.046c0.255,0.267,0.531,0.508,0.819,0.732c0.062,0.048,0.126,0.092,0.19,0.139
			c0.246,0.179,0.5,0.343,0.765,0.49c0.063,0.035,0.124,0.073,0.188,0.107c0.324,0.169,0.659,0.317,1.006,0.437
			c0.044,0.015,0.091,0.026,0.135,0.04c0.309,0.101,0.625,0.179,0.946,0.239c0.082,0.015,0.163,0.031,0.246,0.043
			c0.372,0.057,0.747,0.096,1.129,0.096c0.389,0,0.771-0.041,1.15-0.1c0.084-0.013,0.167-0.028,0.25-0.044
			c0.332-0.063,0.658-0.144,0.976-0.251c0.033-0.011,0.067-0.018,0.1-0.03c0.347-0.122,0.683-0.272,1.008-0.443
			c0.067-0.035,0.132-0.075,0.198-0.112c0.265-0.15,0.521-0.316,0.767-0.497c0.058-0.043,0.118-0.083,0.176-0.128
			c0.288-0.225,0.562-0.469,0.815-0.737c0.028-0.03,0.052-0.063,0.08-0.093c0.152-0.166,0.304-0.333,0.442-0.514l79.682-104.383
			c2.755,1.552,5.309,3.036,6.894,4.62c1.706,1.706,3.297,4.537,4.98,7.534c3.314,5.899,7.07,12.585,14.393,15.622
			c2.606,1.081,5.238,1.492,7.845,1.492c4.465,0,8.853-1.208,12.898-2.321c3.444-0.947,6.697-1.842,9.339-1.842
			c2.643,0,5.896,0.895,9.34,1.843c6.407,1.763,13.668,3.76,20.743,0.828c7.322-3.037,11.078-9.723,14.393-15.622
			c1.684-2.997,3.274-5.828,4.981-7.535c1.706-1.707,4.537-3.297,7.534-4.98c5.899-3.314,12.586-7.071,15.622-14.394
			C421.831,264.555,419.833,257.292,418.07,250.884z M336.101,47.596l50.681,73.322H287.95L336.101,47.596z M322.043,41.675
			l-48.399,73.701l-55.286-73.701H322.043z M259.049,120.918h-111.38l55.69-74.24L259.049,120.918z M188.361,41.675l-55.19,73.573
			l-46.86-73.573H188.361z M72.386,47.735l46.612,73.183H21.801L72.386,47.735z M22.664,135.918h104.303l59.688,214.831
			L22.664,135.918z M204.195,357.853l-61.66-221.935h121.718L204.195,357.853z M274.499,232.207
			c0.947,3.444,1.843,6.697,1.843,9.339c0,2.642-0.895,5.895-1.843,9.338c-1.763,6.408-3.762,13.671-0.828,20.744
			c0.989,2.385,2.37,4.388,3.98,6.124l-56.144,73.549l58.284-215.382h106.127l-24.751,32.427c-1.899,0.417-3.756,0.923-5.544,1.415
			c-3.444,0.948-6.697,1.843-9.34,1.843s-5.895-0.895-9.339-1.842c-6.409-1.763-13.672-3.76-20.743-0.829
			c-7.322,3.037-11.079,9.724-14.394,15.623c-1.685,2.997-3.274,5.828-4.981,7.535c-1.706,1.706-4.537,3.297-7.534,4.98
			c-5.898,3.313-12.585,7.07-15.621,14.392C270.737,218.535,272.736,225.798,274.499,232.207z M403.606,254.863
			c1.177,4.279,2.395,8.705,1.436,11.018c-1.05,2.531-5.149,4.834-9.114,7.062c-3.75,2.107-7.627,4.286-10.794,7.452
			c-3.166,3.166-5.345,7.044-7.451,10.794c-2.228,3.964-4.53,8.064-7.062,9.113c-2.313,0.961-6.738-0.258-11.019-1.435
			c-4.055-1.116-8.65-2.38-13.318-2.38c-4.668,0-9.264,1.264-13.317,2.38c-4.28,1.177-8.707,2.395-11.019,1.436
			c-2.531-1.05-4.834-5.149-7.062-9.113c-2.106-3.75-4.285-7.628-7.451-10.794c-3.167-3.166-7.044-5.345-10.794-7.452
			c-3.965-2.228-8.064-4.531-9.114-7.063c-0.96-2.314,0.258-6.739,1.436-11.018c1.115-4.055,2.38-8.65,2.38-13.318
			c0-4.668-1.265-9.264-2.38-13.318c-1.178-4.279-2.396-8.704-1.436-11.018c1.05-2.531,5.149-4.834,9.113-7.062
			c3.75-2.107,7.628-4.286,10.794-7.452s5.344-7.043,7.451-10.793c2.228-3.964,4.53-8.064,7.062-9.114
			c0.586-0.243,1.307-0.346,2.126-0.346c2.418,0,5.696,0.902,8.894,1.781c4.054,1.116,8.649,2.38,13.317,2.38
			c4.668,0,9.264-1.264,13.319-2.38c4.278-1.177,8.703-2.394,11.017-1.436c2.532,1.05,4.835,5.15,7.063,9.114
			c2.107,3.75,4.285,7.627,7.451,10.793c3.167,3.167,7.044,5.345,10.794,7.452c3.965,2.228,8.064,4.531,9.114,7.062
			c0.959,2.314-0.259,6.739-1.436,11.019c-1.115,4.055-2.38,8.65-2.38,13.318C401.226,246.213,402.491,250.809,403.606,254.863z"/>
	</g>
</g>
<g>
</g>
<g>
</g>
<g>
</g>
<g>
</g>
<g>
</g>
<g>
</g>
<g>
</g>
<g>
</g>
<g>
</g>
<g>
</g>
<g>
</g>
<g>
</g>
<g>
</g>
<g>
</g>
<g>
</g>
</svg>
