<?xml version="1.0" encoding="iso-8859-1"?>
<!-- Generator: Adobe Illustrator 18.1.1, SVG Export Plug-In . SVG Version: 6.00 Build 0)  -->
<svg version="1.1" id="Capa_1" xmlns="http://www.w3.org/2000/svg" xmlns:xlink="http://www.w3.org/1999/xlink" x="0px" y="0px"
	 viewBox="0 0 430 430" style="enable-background:new 0 0 430 430;" xml:space="preserve">
<g>
	<g id="Layer_1_91_">
		<path d="M429.636,180.026c-1.872-11.69-4.813-19.177-9.259-28.877c-3.923-8.567-8.378-15.583-13.241-20.861
			c-9.78-10.593-19.934-12.818-26.729-12.818c-0.149,0-0.302,0.008-0.445,0.035l-115.114,12.426
			c-1.524,0.222-2.654,1.526-2.654,3.074v14.282c0,1.721,1.389,3.106,3.105,3.106h114.948c0.94,0.354,4.638,3.199,9.11,12.185
			l-133.862,19.091c-7.024,0.984-13.655,3.865-19.198,8.178h-42.595c-5.542-4.313-12.175-7.193-19.197-8.178L40.642,162.578
			c4.473-8.985,8.17-11.831,9.11-12.185H164.7c1.715,0,3.105-1.386,3.105-3.106v-14.282c0-1.548-1.13-2.853-2.654-3.074
			L50.039,117.505c-0.146-0.027-0.298-0.035-0.447-0.035c-6.795,0-16.949,2.226-26.729,12.818
			c-4.863,5.278-9.318,12.294-13.241,20.861c-4.445,9.7-7.387,17.187-9.259,28.877c-1.867,11.688,4.079,15.202,3.836,22.812
			c-0.076,2.384-0.316,15.003,2.516,29.349c3.084,15.588,8.894,28.479,17.28,38.305c6.808,7.979,15.127,13.778,24.72,17.261
			c0.64,0.229,64.217,23.192,88.325,24.683c1.072,0.06,2.163,0.094,3.235,0.094h0.009c15.318,0,43.478-6.724,59.889-51.812
			c5.743-15.772,8.296-30.927,8.559-32.597c0.06-0.334,0.092-0.67,0.138-1.003h12.262c0.046,0.333,0.08,0.669,0.137,1.003
			c0.264,1.67,2.816,16.824,8.561,32.597c16.41,45.088,44.569,51.812,59.887,51.812h0.01c1.071,0,2.162-0.034,3.235-0.094
			c24.105-1.49,87.686-24.453,88.325-24.683c9.595-3.482,17.909-9.282,24.717-17.261c8.39-9.825,14.201-22.717,17.283-38.305
			c2.832-14.346,2.592-26.965,2.516-29.349C425.556,195.228,431.503,191.714,429.636,180.026z M178.065,223.15
			c-0.084,0.552-2.228,13.622-7.082,26.936c-7.573,20.826-17.903,31.378-30.7,31.378h-0.009c-0.438,0-0.886-0.011-1.335-0.041
			c-14.872-0.91-60.915-16.094-79.638-22.875c-11.236-4.069-18.671-14.973-22.114-32.39c-2.266-11.451-1.957-21.889-1.939-22.32
			c0.084-2.642,1.292-5.136,3.313-6.833c1.678-1.415,3.806-2.186,5.999-2.186c0.43,0,0.864,0.029,1.302,0.086l124.311,17.518
			c2.468,0.35,4.726,1.701,6.205,3.699C177.855,218.128,178.472,220.688,178.065,223.15z M392.811,226.158
			c-3.443,17.417-10.878,28.32-22.114,32.39c-18.723,6.781-64.766,21.965-79.638,22.875c-0.449,0.03-0.897,0.041-1.335,0.041h-0.01
			c-12.797,0-23.126-10.552-30.699-31.378c-4.854-13.313-7-26.384-7.084-26.936c-0.404-2.462,0.212-5.022,1.689-7.028
			c1.479-1.998,3.737-3.35,6.205-3.699l124.311-17.518c0.438-0.057,0.872-0.086,1.302-0.086c2.193,0,4.321,0.771,5.997,2.186
			c2.023,1.697,3.23,4.191,3.317,6.833C394.767,204.27,395.077,214.707,392.811,226.158z"/>
	</g>
</g>
<g>
</g>
<g>
</g>
<g>
</g>
<g>
</g>
<g>
</g>
<g>
</g>
<g>
</g>
<g>
</g>
<g>
</g>
<g>
</g>
<g>
</g>
<g>
</g>
<g>
</g>
<g>
</g>
<g>
</g>
</svg>
