<?xml version="1.0" encoding="iso-8859-1"?>
<!-- Generator: Adobe Illustrator 19.0.0, SVG Export Plug-In . SVG Version: 6.00 Build 0)  -->
<svg version="1.1" id="Layer_1" xmlns="http://www.w3.org/2000/svg" xmlns:xlink="http://www.w3.org/1999/xlink" x="0px" y="0px"
	 viewBox="0 0 504.823 504.823" style="enable-background:new 0 0 504.823 504.823;" xml:space="preserve">
<g>
	<g>
		<path d="M477.366,341.286c-38.733,0-146.396-38.9-188.8-71.975c-20.278-15.819-43.335-33.921-68.652-53.888
			c-1.502-1.185-1.502-1.185-3.005-2.37c-34.422-27.156-71.122-56.253-107.7-85.35C96.406,117.52,84.533,108.064,73.89,99.577
			c-3.725-2.97-7.03-5.607-9.878-7.88c-2.885-2.303-2.885-2.303-3.491-2.787c-3.231-2.581-7.849-2.474-10.956,0.255
			C14.314,120.119-14.96,210.789,8.353,257.414c5.293,10.586,11.194,19.374,18.773,28.619c1.758,2.145,3.57,4.275,5.819,6.86
			c0.9,1.034,4.618,5.277,5.565,6.366c15.652,18.009,23.827,32.93,27.13,57.866c-0.07,0.652-0.071,1.322,0.017,2.005
			c1.036,8.061,1.631,16.942,1.763,26.839c0.014,1.396,0.021,2.816,0.021,4.265v19.012c0,4.713,3.82,8.533,8.533,8.533h34.133
			c1.473,0,2.859-0.373,4.068-1.031c2.663-1.444,4.472-4.264,4.472-7.506v-51.2c0-0.045-0.006-0.089-0.007-0.134v-42.529
			c0-5.411,2.372-11.87,6.559-14.66c6.812-4.54,20.129-2.235,41.811,11.738c10.823,6.973,21.307,14.561,32.247,23.21
			c9.429,7.454,52.161,44.15,63.73,52.759c26.614,19.804,49.813,29.353,77.358,29.353c1.528-0.008,4.238-0.021,7.913-0.039
			c6.125-0.029,12.695-0.058,19.451-0.085c7.323-0.029,14.428-0.055,21.15-0.075c10.665-0.032,19.971-0.049,27.527-0.049
			c15.68,0,44.401-4.379,55.975-9.186c10.071-4.185,23.454-18.867,29.242-32.109C510.065,356.874,501.805,341.286,477.366,341.286z
			 M101.575,400.709h-17.06V390.23c0-1.465-0.013-2.903-0.031-4.331c-0.005-0.475-0.013-0.94-0.02-1.41
			c-0.005-0.262-0.009-0.524-0.014-0.785c-0.098-6.108-0.339-11.798-0.735-17.129h17.859V400.709z M485.964,369.402
			c-4.137,9.466-14.5,20.834-20.151,23.183c-9.208,3.825-35.808,7.88-49.427,7.88c-7.576,0-16.897,0.017-27.578,0.049
			c-6.729,0.02-13.839,0.045-21.168,0.075c-6.76,0.027-13.334,0.056-19.463,0.085c-3.677,0.017-6.389,0.031-7.876,0.039
			c-23.332,0-43.208-8.182-67.125-25.979c-10.984-8.173-53.454-44.644-63.334-52.455c-11.349-8.972-22.271-16.878-33.587-24.168
			c-26.765-17.249-46.825-20.721-60.52-11.594c-9.84,6.558-14.16,18.322-14.16,28.862v34.13H81.726
			c-4.248-25.447-13.668-42.269-30.334-61.445c-0.977-1.124-4.699-5.371-5.57-6.372c-2.149-2.47-3.859-4.481-5.497-6.479
			c-6.823-8.322-12.028-16.074-16.706-25.431C5.299,213.143,28.022,137.48,55.789,106.969c2.255,1.799,4.747,3.787,7.461,5.951
			c10.648,8.491,22.526,17.951,35.334,28.14c36.595,29.11,73.312,58.221,107.754,85.393c1.503,1.186,1.503,1.186,3.007,2.372
			c25.34,19.984,48.419,38.104,68.724,53.944c45.334,35.359,156.663,75.584,199.297,75.584
			C488.606,358.353,489.804,360.615,485.964,369.402z"/>
	</g>
</g>
<g>
</g>
<g>
</g>
<g>
</g>
<g>
</g>
<g>
</g>
<g>
</g>
<g>
</g>
<g>
</g>
<g>
</g>
<g>
</g>
<g>
</g>
<g>
</g>
<g>
</g>
<g>
</g>
<g>
</g>
</svg>
