<?xml version="1.0" encoding="iso-8859-1"?>
<!-- Generator: Adobe Illustrator 19.0.0, SVG Export Plug-In . SVG Version: 6.00 Build 0)  -->
<svg version="1.1" id="Layer_1" xmlns="http://www.w3.org/2000/svg" xmlns:xlink="http://www.w3.org/1999/xlink" x="0px" y="0px"
	 viewBox="0 0 503.931 503.931" style="enable-background:new 0 0 503.931 503.931;" xml:space="preserve">
<g transform="translate(0 -1)">
	<g>
		<g>
			<path d="M491.582,340.1c-18.316-23.29-54.918-36.779-113.877-36.779c-0.219,0.006-0.396,0.012-0.564,0.017
				c-1.333,0.033-2.648,0.05-3.978,0.048c-0.047,0-0.093,0-0.141,0c-0.167,0-0.337-0.003-0.504-0.004
				c-2.286-0.023-4.93-0.106-7.905-0.273c-7.206-0.404-14.969-1.229-23.121-2.572c-0.076-0.013-0.149-0.011-0.225-0.021
				c-12.79-2.12-25.487-5.33-37.824-9.795c-0.055-0.022-0.106-0.05-0.161-0.071c-0.084-0.032-0.17-0.054-0.255-0.083
				c-7.554-2.753-14.973-5.971-22.195-9.697c-15.572-8.033-29.51-17.989-41.641-29.988c-0.28-0.401-0.591-0.787-0.949-1.145
				c-0.344-0.344-0.715-0.644-1.1-0.916c-14.395-14.768-26.114-32.554-34.797-53.628c-0.117-0.654-0.305-1.305-0.587-1.939
				c-0.195-0.437-0.429-0.843-0.685-1.229c-10.683-27.282-16.417-59.914-16.417-98.502c0-4.464-3.494-8.147-7.952-8.382
				c-3.554-0.106-7.186-0.002-11.346,0.426c-6.241,0.642-12.426,1.902-18.296,3.952c-11.674,4.078-20.928,10.85-26.478,20.79H25.18
				C11.27,110.31,0,121.58,0,135.49v243.372v0.004v8.389c0,18.544,15.03,33.574,33.574,33.574h436.459
				c18.544,0,33.574-15.03,33.574-33.574v-7.796c0.036-0.28,0.071-0.59,0.105-0.943c0.139-1.446,0.214-2.927,0.22-4.436
				C503.97,363.521,500.588,351.55,491.582,340.1z M376.915,320.145c55.056-0.033,86.783,11.659,101.472,30.336
				c4.167,5.298,6.688,10.896,7.904,16.575c0.254,1.185,0.442,2.326,0.574,3.413H374.907l-21.401-51.364
				C362.664,320.049,370.595,320.314,376.915,320.145z M25.18,127.096h100.721c3.473,0,6.587-2.139,7.834-5.38
				c2.986-7.765,9.468-13.068,18.862-16.349c4.525-1.58,9.455-2.585,14.478-3.102c0.084,2.705,0.207,5.373,0.345,8.024h-7.945
				c-4.636,0-8.393,3.758-8.393,8.393s3.758,8.393,8.393,8.393h9.229c2.431,24.152,7.284,45.888,14.356,65.312l-31.867,14.186
				c-4.235,1.885-6.14,6.846-4.255,11.081s6.847,6.14,11.081,4.255l31.404-13.979c8.269,18.131,18.677,34.007,31.052,47.7
				l-23.281,23.281c-3.278,3.278-3.278,8.592,0,11.87s8.592,3.278,11.87,0l23.261-23.261c12.141,11.102,25.779,20.513,40.809,28.267
				c5.348,2.759,10.786,5.26,16.295,7.518l-12.194,31.753c-1.662,4.327,0.499,9.183,4.827,10.844s9.183-0.499,10.845-4.827
				l12.297-32.023c9.532,3.065,19.213,5.462,28.951,7.257l22.565,54.157H16.787V135.49C16.787,130.851,20.541,127.096,25.18,127.096
				z M470.033,404.042H33.574c-9.271,0-16.784-7.512-16.787-16.783h470.032C486.817,396.53,479.304,404.042,470.033,404.042z"/>
			<path d="M82.208,336.895h37.023c22.153,0,40.247-18.094,40.247-40.247v-3.441c0-22.153-18.094-40.247-40.247-40.247H82.208
				c-22.152,0-40.238,18.093-40.238,40.247v3.441C41.97,318.802,60.056,336.895,82.208,336.895z M58.757,293.207
				c0-12.884,10.572-23.46,23.451-23.46h37.023c12.882,0,23.46,10.578,23.46,23.46v3.441c0,12.882-10.578,23.46-23.46,23.46H82.208
				c-12.879,0-23.451-10.576-23.451-23.46V293.207z"/>
			<path d="M92.328,303.321h16.787c4.636,0,8.393-3.758,8.393-8.393c0-4.636-3.758-8.393-8.393-8.393H92.328
				c-4.636,0-8.393,3.758-8.393,8.393C83.934,299.563,87.692,303.321,92.328,303.321z"/>
		</g>
	</g>
</g>
<g>
</g>
<g>
</g>
<g>
</g>
<g>
</g>
<g>
</g>
<g>
</g>
<g>
</g>
<g>
</g>
<g>
</g>
<g>
</g>
<g>
</g>
<g>
</g>
<g>
</g>
<g>
</g>
<g>
</g>
</svg>
