<?xml version="1.0" encoding="iso-8859-1"?>
<!-- Generator: Adobe Illustrator 18.0.0, SVG Export Plug-In . SVG Version: 6.00 Build 0)  -->
<!DOCTYPE svg PUBLIC "-//W3C//DTD SVG 1.1//EN" "http://www.w3.org/Graphics/SVG/1.1/DTD/svg11.dtd">
<svg version="1.1" id="Capa_1" xmlns="http://www.w3.org/2000/svg" xmlns:xlink="http://www.w3.org/1999/xlink" x="0px" y="0px"
	 viewBox="0 0 460.08 460.08" style="enable-background:new 0 0 460.08 460.08;" xml:space="preserve">
<g>
	<path d="M219.04,94.735c-74.583,0-135.261,60.678-135.261,135.262s60.678,135.261,135.261,135.261
		c74.584,0,135.262-60.678,135.262-135.261S293.624,94.735,219.04,94.735z M219.04,355.258
		c-69.069,0-125.261-56.192-125.261-125.261s56.192-125.262,125.261-125.262s125.262,56.192,125.262,125.262
		S288.11,355.258,219.04,355.258z"/>
	<path d="M400.289,198.858h-9.093c-3.684-23.204-11.447-45.702-22.99-66.28l-39.895-71.113
		c-4.423-7.898-12.736-12.843-21.776-13.006V5c0-2.761-2.238-5-5-5h-43.201c-2.762,0-5,2.239-5,5v2.536h-68.587V5
		c0-2.761-2.239-5-5-5h-43.202c-2.761,0-5,2.239-5,5v43.46c-9.039,0.163-17.353,5.107-21.774,13.002l-39.896,71.116
		c-16.655,29.691-25.458,63.378-25.458,97.419s8.803,67.727,25.458,97.418l39.895,71.113c4.423,7.898,12.736,12.844,21.776,13.006
		v43.546c0,2.761,2.239,5,5,5h43.202c2.761,0,5-2.239,5-5v-2.536h68.587v2.536c0,2.761,2.238,5,5,5h43.201c2.762,0,5-2.239,5-5
		v-43.546c9.04-0.163,17.354-5.108,21.774-13.003l39.896-71.116c11.543-20.578,19.307-43.076,22.99-66.28h9.093
		c8.478,0,15.375-6.897,15.375-15.375v-31.525C415.664,205.756,408.767,198.858,400.289,198.858z M400.289,208.858
		c2.629,0,4.814,1.901,5.276,4.398h-12.633c-0.125-1.468-0.264-2.934-0.421-4.398H400.289z M393.545,236.737
		c0.077-2.245,0.12-4.491,0.12-6.74s-0.044-4.496-0.12-6.74h12.12v13.48H393.545z M174.747,384.091v6.779h-33.202v-20.567
		C151.962,376.079,163.082,380.733,174.747,384.091z M141.545,400.87h33.202v26.603h-33.202V400.87z M184.747,386.614
		c11.053,2.418,22.525,3.705,34.293,3.705c11.769,0,23.24-1.286,34.294-3.705v24.71h-68.587V386.614z M263.334,400.87h33.201v26.603
		h-33.201V400.87z M296.535,390.87h-33.201v-6.779c11.665-3.358,22.785-8.012,33.201-13.788V390.87z M219.04,380.319
		c-82.888,0-150.321-67.434-150.321-150.322S136.153,79.675,219.04,79.675s150.322,67.434,150.322,150.322
		S301.928,380.319,219.04,380.319z M296.535,59.21h-33.201V32.607h33.201V59.21z M253.334,73.38
		c-11.053-2.418-22.525-3.705-34.294-3.705c-11.768,0-23.24,1.286-34.293,3.705V48.755h68.587V73.38z M174.747,59.21h-33.202V32.607
		h33.202V59.21z M141.545,69.21h33.202v6.693c-11.665,3.358-22.785,8.012-33.202,13.789V69.21z M263.334,75.903V69.21h33.201v20.481
		C286.119,83.915,274.999,79.261,263.334,75.903z M263.334,10h33.201v12.607h-33.201V10z M253.334,38.755h-68.587v-21.22h68.587
		V38.755z M174.747,10v12.607h-33.202V10H174.747z M118.492,393.639l-39.896-71.116c-15.819-28.2-24.18-60.195-24.18-92.526
		c0-32.331,8.361-64.326,24.18-92.526l39.898-71.12c2.657-4.744,7.628-7.731,13.051-7.891v37.263
		c-43.813,28.647-72.826,78.133-72.826,134.274s29.013,105.627,72.826,134.274v37.263
		C126.122,401.374,121.151,398.386,118.492,393.639z M174.747,450.08h-33.202v-12.607h33.202V450.08z M184.747,421.325h68.587v21.22
		h-68.587V421.325z M263.334,450.08v-12.607h33.201v12.607H263.334z M359.486,322.523l-39.898,71.12
		c-2.657,4.744-7.627,7.731-13.052,7.892v-37.263c43.814-28.647,72.827-78.133,72.827-134.275s-29.013-105.628-72.827-134.275V58.46
		c5.424,0.16,10.395,3.148,13.054,7.895l39.896,71.116c15.818,28.2,24.18,60.195,24.18,92.526
		C383.665,262.328,375.304,294.323,359.486,322.523z M400.289,251.135h-7.778c0.157-1.464,0.296-2.93,0.421-4.398h12.633
		C405.103,249.235,402.918,251.135,400.289,251.135z"/>
	<path d="M328.192,198.997c-0.649-2.684-3.354-4.332-6.036-3.683l-104.307,25.262l-53.078-35.638
		c-2.292-1.54-5.399-0.929-6.938,1.364c-1.54,2.292-0.929,5.399,1.364,6.938l45.469,30.529l-14.136,3.423
		c-2.684,0.65-4.333,3.353-3.683,6.036c0.554,2.289,2.601,3.824,4.855,3.824c0.39,0,0.785-0.046,1.181-0.142l23.044-5.581
		l18.628,12.507c0.855,0.575,1.824,0.85,2.782,0.85c1.61,0,3.191-0.776,4.156-2.213c1.539-2.292,0.929-5.399-1.364-6.938
		l-11.019-7.398l95.398-23.104C327.193,204.383,328.842,201.68,328.192,198.997z"/>
	<circle cx="120.024" cy="229.997" r="8.478"/>
	<circle cx="318.057" cy="229.997" r="8.478"/>
	<circle cx="133.29" cy="279.505" r="8.478"/>
	<circle cx="304.791" cy="180.489" r="8.478"/>
	<circle cx="169.532" cy="315.748" r="8.478"/>
	<circle cx="268.549" cy="144.246" r="8.478"/>
	<circle cx="219.041" cy="329.014" r="8.478"/>
	<circle cx="219.041" cy="130.98" r="8.478"/>
	<circle cx="268.549" cy="315.748" r="8.478"/>
	<circle cx="169.532" cy="144.246" r="8.478"/>
	<circle cx="304.791" cy="279.505" r="8.478"/>
	<circle cx="133.29" cy="180.489" r="8.478"/>
</g>
<g>
</g>
<g>
</g>
<g>
</g>
<g>
</g>
<g>
</g>
<g>
</g>
<g>
</g>
<g>
</g>
<g>
</g>
<g>
</g>
<g>
</g>
<g>
</g>
<g>
</g>
<g>
</g>
<g>
</g>
</svg>
