<?xml version="1.0" encoding="iso-8859-1"?>
<!-- Generator: Adobe Illustrator 19.0.0, SVG Export Plug-In . SVG Version: 6.00 Build 0)  -->
<svg version="1.1" id="Layer_1" xmlns="http://www.w3.org/2000/svg" xmlns:xlink="http://www.w3.org/1999/xlink" x="0px" y="0px"
	 viewBox="0 0 511.999 511.999" style="enable-background:new 0 0 511.999 511.999;" xml:space="preserve">
<g>
	<g>
		<path d="M447.457,180.089c-17.18-29.587-41.129-54.914-69.616-73.794L394.7,86.2c1.413-1.543,2.283-3.592,2.283-5.85
			c0-1.836-0.571-3.541-1.545-4.943L353.037,4.235C351.473,1.609,348.643,0,345.586,0H166.408c-3.056,0-5.887,1.609-7.451,4.235
			l-42.7,71.676c-0.086,0.143-0.148,0.294-0.224,0.441c-0.059,0.113-0.131,0.216-0.185,0.333c-0.02,0.042-0.03,0.084-0.049,0.126
			c-0.102,0.227-0.183,0.458-0.264,0.69c-0.051,0.146-0.11,0.289-0.153,0.436c-0.074,0.256-0.125,0.516-0.175,0.776
			c-0.024,0.127-0.061,0.253-0.08,0.382c-0.057,0.387-0.089,0.777-0.094,1.168c0,0.049,0.008,0.096,0.008,0.143
			c0.002,0.343,0.02,0.687,0.062,1.029c0.017,0.138,0.053,0.272,0.076,0.409c0.044,0.25,0.086,0.498,0.151,0.745
			c0.043,0.157,0.102,0.31,0.153,0.465c0.072,0.219,0.141,0.437,0.231,0.651c0.068,0.162,0.151,0.318,0.23,0.476
			c0.074,0.15,0.135,0.306,0.219,0.453c0.028,0.049,0.062,0.09,0.091,0.138c0.089,0.149,0.19,0.29,0.288,0.435
			c0.131,0.193,0.263,0.383,0.407,0.563c0.039,0.05,0.069,0.104,0.111,0.153l17.091,20.371
			c-28.488,18.88-52.436,44.207-69.612,73.796c-19.463,33.527-29.75,71.809-29.75,110.704c0,47.41,14.856,92.655,42.959,130.843
			c2.839,3.858,8.267,4.684,12.126,1.844c3.858-2.839,4.684-8.268,1.845-12.126c-25.896-35.187-39.584-76.876-39.584-120.561
			c0-35.841,9.477-71.11,27.405-101.996c16.167-27.85,38.825-51.628,65.818-69.144l33.777,40.26
			c-20.792,12.244-38.435,29.29-51.437,49.789c-15.388,24.259-23.521,52.299-23.521,81.09c0,83.712,68.105,151.817,151.817,151.817
			s151.817-68.105,151.817-151.817c0-21.714-4.517-42.705-13.426-62.387c-1.975-4.363-7.114-6.3-11.478-4.325
			c-4.363,1.975-6.3,7.113-4.325,11.478c7.885,17.419,11.882,36.003,11.882,55.235c0,74.147-60.323,134.47-134.47,134.47
			s-134.47-60.323-134.47-134.47c0-25.496,7.2-50.323,20.822-71.798c12.049-18.996,28.604-34.629,48.127-45.568
			c0,0,58.769,70.05,58.772,70.053c1.18,1.406,2.737,2.503,4.54,2.929c0.726,0.173,1.458,0.297,2.213,0.297
			c2.034,0,4.02-0.752,5.582-2.046c0.426-0.353,0.804-0.769,1.168-1.184l58.773-70.057c15.104,8.486,28.677,19.989,39.535,33.568
			c2.992,3.741,8.45,4.349,12.191,1.358c3.741-2.992,4.349-8.45,1.358-12.191c-11.562-14.459-25.853-26.839-41.758-36.235
			l20.423-24.343l13.359-15.924c26.993,17.516,49.65,41.294,65.818,69.144c17.929,30.886,27.406,66.155,27.406,101.996
			c0,112.408-91.451,203.859-203.859,203.859c-53.45,0-104.009-20.634-142.362-58.103c-3.427-3.348-8.918-3.283-12.265,0.143
			c-3.348,3.427-3.283,8.917,0.143,12.265c41.613,40.653,96.477,63.042,154.485,63.042c121.973,0,221.205-99.233,221.205-221.205
			C477.207,251.898,466.919,213.617,447.457,180.089z M171.337,17.346h38.399l-5.994,12.98c-2.008,4.348-0.111,9.502,4.238,11.51
			c1.177,0.544,2.413,0.801,3.63,0.801c3.277,0,6.416-1.868,7.88-5.04l9.351-20.252h54.31l25.088,54.329H203.754l2.462-5.332
			c2.008-4.349,0.111-9.502-4.238-11.511c-4.35-2.009-9.502-0.111-11.511,4.238l-5.822,12.605h-45.677L171.337,17.346z
			 M142.306,89.022h42.112l41.677,99.873L142.306,89.022z M358.185,102.733c-0.001,0.001-0.002,0.001-0.002,0.002l-16.79,20.013
			l-55.494,66.147l5.069-12.146c1.844-4.421-0.243-9.499-4.664-11.345c-4.419-1.845-9.499,0.243-11.345,4.664l-18.962,45.442
			L203.213,89.022h105.569l-16.251,38.944c-1.844,4.421,0.243,9.499,4.664,11.345c1.092,0.456,2.223,0.672,3.336,0.672
			c3.395,0,6.618-2.006,8.007-5.336l19.038-45.624h42.112L358.185,102.733z M327.347,71.676l-25.089-54.329h38.399l32.366,54.329
			H327.347z"/>
	</g>
</g>
<g>
</g>
<g>
</g>
<g>
</g>
<g>
</g>
<g>
</g>
<g>
</g>
<g>
</g>
<g>
</g>
<g>
</g>
<g>
</g>
<g>
</g>
<g>
</g>
<g>
</g>
<g>
</g>
<g>
</g>
</svg>
